<?xml version="1.0" ?><svg id="Layer_1" width="50px" height="50px" style="enable-background:new 0 0 512 512;" version="1.1" viewBox="0 0 512 512" xml:space="preserve" xmlns="http://www.w3.org/2000/svg" xmlns:xlink="http://www.w3.org/1999/xlink"><style type="text/css">
	.st0{opacity:0.5;fill:#40418F;}
	.st1{fill:#20201E;}
</style><path class="st0" d="M248,440.8c0-15.6-12.7-28.3-28.3-28.3s-28.3,12.7-28.3,28.3c0,15.6-12.7,28.3-28.3,28.3s-28.3-12.7-28.3-28.3  V204.5c0-78.2,63.4-141.6,141.6-141.6s141.6,63.4,141.6,141.6v236.3c0,15.6-12.7,28.3-28.3,28.3c-15.6,0-28.3-12.7-28.3-28.3  c0-15.6-12.7-28.3-28.3-28.3s-28.3,12.7-28.3,28.3c0,15.6-12.7,28.3-28.3,28.3C260.6,469.1,248,456.4,248,440.8"/><g><path class="st1" d="M193.1,205c-14.8,0-26.9-12.1-26.9-26.9s12.1-26.9,26.9-26.9s26.9,12.1,26.9,26.9S207.9,205,193.1,205z    M193.1,161.3c-9.3,0-16.9,7.6-16.9,16.9s7.6,16.9,16.9,16.9c9.3,0,16.9-7.6,16.9-16.9S202.4,161.3,193.1,161.3z"/><path class="st1" d="M318.9,205c-14.8,0-26.9-12.1-26.9-26.9s12.1-26.9,26.9-26.9c14.8,0,26.9,12.1,26.9,26.9S333.7,205,318.9,205z    M318.9,161.3c-9.3,0-16.9,7.6-16.9,16.9s7.6,16.9,16.9,16.9c9.3,0,16.9-7.6,16.9-16.9S328.2,161.3,318.9,161.3z"/></g><path class="st1" d="M256,242.9c-7.1,0-13.8-2.8-18.9-7.8c-2-2-2-5.1,0-7.1c2-2,5.1-2,7.1,0c3.2,3.2,7.3,4.9,11.8,4.9  s8.7-1.7,11.8-4.9c2-2,5.1-2,7.1,0c2,2,2,5.1,0,7.1C269.8,240.1,263.1,242.9,256,242.9z"/><path class="st1" d="M369.5,464.1c-18.4,0-33.3-14.9-33.3-33.3c0-12.9-10.5-23.3-23.3-23.3c-12.9,0-23.3,10.5-23.3,23.3  c0,18.4-14.9,33.3-33.3,33.3c-18.4,0-33.3-14.9-33.3-33.3c0-12.9-10.5-23.3-23.3-23.3c-12.9,0-23.3,10.5-23.3,23.3  c0,18.4-14.9,33.3-33.3,33.3c-18.4,0-33.3-14.9-33.3-33.3V194.5c0-80.8,65.8-146.6,146.6-146.6c80.8,0,146.6,65.8,146.6,146.6v236.3  C402.9,449.2,387.9,464.1,369.5,464.1z M312.9,397.5c18.4,0,33.3,14.9,33.3,33.3c0,12.9,10.5,23.3,23.3,23.3s23.3-10.5,23.3-23.3  V194.5c0-75.3-61.3-136.6-136.6-136.6c-75.3,0-136.6,61.3-136.6,136.6v236.3c0,12.9,10.5,23.3,23.3,23.3c12.9,0,23.3-10.5,23.3-23.3  c0-18.4,14.9-33.3,33.3-33.3c18.4,0,33.3,14.9,33.3,33.3c0,12.9,10.5,23.3,23.3,23.3c12.9,0,23.3-10.5,23.3-23.3  C279.6,412.4,294.5,397.5,312.9,397.5z"/></svg>