<svg width="49.99999999999999" height="49.99999999999999" xmlns="http://www.w3.org/2000/svg">

 <g>
  <title>background</title>
  <rect fill="none" id="canvas_background" height="402" width="582" y="-1" x="-1"/>
 </g>
 <g>
  <title>Layer 1</title>
  <path fill="#ff9d9c" id="svg_5" d="m23.84,30.43l10.39,0c0,0 1.66,3.87 -0.99,6.81l-10.65,10.64c0,0 -2.19,-6.86 0.88,-12.14l0.37,-5.31z" class="st1"/>
  <path fill="#ff9d9c" id="svg_6" d="m22.69,22.44l-3.12,-6.67c0,0 -3.87,-1.66 -6.81,0.99l-10.64,10.64c0,0 6.87,2.19 12.14,-0.87l8.43,-4.09z" class="st1"/>
  <path fill="#9beaf9" id="svg_7" d="m37.7,27.04c-4.14,4.14 -9.29,7.26 -15.06,8.96l-8.64,-8.64c3.22,-10.92 11.53,-19.64 22.19,-23.43c3.73,-1.33 7.75,-2.06 11.94,-2.06c-0.01,4.19 -0.73,8.2 -2.06,11.94c-1.79,5.03 -4.67,9.53 -8.37,13.23z" class="st2"/>
  <path fill="#ff9d9c" id="svg_8" d="m46.07,13.81c-2.39,-0.39 -4.68,-1.52 -6.52,-3.36c-1.84,-1.84 -2.97,-4.13 -3.36,-6.52c3.73,-1.33 7.75,-2.06 11.94,-2.06c-0.01,4.2 -0.73,8.21 -2.06,11.94z" class="st1"/>
  <circle fill="#ffffff" id="svg_9" r="6" cy="19.51" cx="30.5" class="st6"/>
  <path fill="#fde4a1" id="svg_10" d="m12.01,42.13c2.77,-2.77 -1.38,-6.91 -4.15,-4.15c-2.75,-2.75 5.49,-5.49 8.24,-8.24c1.38,1.38 2.77,2.77 4.15,4.15c-2.74,2.75 -5.49,10.99 -8.24,8.24z" class="st7"/>
  <path fill="#505050" id="svg_12" d="m48.66,1.34c-0.14,-0.14 -0.33,-0.22 -0.53,-0.22c-4.19,0 -8.29,0.71 -12.19,2.1c-2.37,0.84 -4.67,1.94 -6.82,3.26c-0.35,0.22 -0.46,0.68 -0.24,1.03c0.21,0.35 0.68,0.46 1.03,0.25c0,0 0.01,0 0.01,-0.01c1.81,-1.11 3.74,-2.04 5.71,-2.81c0.54,2.28 1.7,4.35 3.39,6.04c1.68,1.68 3.75,2.84 6.03,3.38c-1.73,4.52 -4.43,8.7 -7.88,12.15c-3.99,3.99 -8.94,6.98 -14.31,8.64l-1.93,-1.93c0,0 -6.08,-6.08 -6.08,-6.08c2.11,-6.81 6.2,-12.74 11.84,-17.15c0.16,-0.12 0.26,-0.3 0.29,-0.5c0.02,-0.2 -0.03,-0.39 -0.15,-0.55c-0.25,-0.32 -0.74,-0.38 -1.06,-0.13c-2.33,1.82 -4.4,3.89 -6.19,6.16c-1.01,-0.35 -4.51,-1.3 -7.34,1.26l-10.65,10.64c-0.19,0.19 -0.26,0.45 -0.2,0.71c0.06,0.25 0.25,0.46 0.5,0.54c0.17,0.05 2.58,0.8 5.64,0.8c1.84,0 3.91,-0.28 5.88,-1.13c0.02,0.03 0.03,0.07 0.05,0.09l1.69,1.69c-0.87,0.7 -2.08,1.43 -3.26,2.14c-2.55,1.53 -4.96,2.97 -5.17,4.73c-0.09,0.7 0.17,1.35 0.76,1.94c0.29,0.29 0.77,0.29 1.06,0c1.07,-1.07 2.32,-0.77 3.09,0c0.77,0.77 1.07,2.02 0,3.09c-0.29,0.29 -0.29,0.77 0,1.06c0.51,0.51 1.08,0.77 1.67,0.77c0.09,0 0.17,-0.01 0.26,-0.02c1.76,-0.22 3.2,-2.62 4.73,-5.17c0.71,-1.18 1.44,-2.39 2.14,-3.26l1.69,1.69c0.03,0.03 0.06,0.04 0.09,0.06c-2.27,5.25 -0.42,11.23 -0.33,11.51c0.08,0.25 0.28,0.44 0.54,0.5c0.06,0.01 0.12,0.02 0.18,0.02c0.2,0 0.39,-0.08 0.53,-0.22l10.67,-10.67c2.55,-2.82 1.58,-6.32 1.23,-7.33c1.12,-0.88 2.19,-1.83 3.21,-2.84c3.81,-3.81 6.76,-8.48 8.55,-13.51c1.38,-3.89 2.09,-7.99 2.1,-12.19c-0.01,-0.2 -0.09,-0.39 -0.23,-0.53zm-45.07,25.66l9.67,-9.67c1.9,-1.72 4.25,-1.37 5.37,-1.07c-2.14,2.96 -3.81,6.24 -4.97,9.76c-3.59,1.94 -7.97,1.41 -10.07,0.98zm13.41,10.33c-1.16,1.93 -2.6,4.33 -3.63,4.46c-0.02,0 -0.06,0 -0.1,0c0.99,-1.57 0.53,-3.36 -0.59,-4.48s-2.91,-1.58 -4.48,-0.59c0,-0.05 0,-0.08 0,-0.1c0.13,-1.03 2.53,-2.47 4.46,-3.63c1.27,-0.76 2.58,-1.55 3.55,-2.35l3.14,3.14c-0.79,0.97 -1.58,2.28 -2.35,3.55zm15.7,-0.62l-9.7,9.7c-0.43,-2.1 -0.97,-6.47 1,-10.07c3.47,-1.15 6.76,-2.84 9.74,-4.98c0.31,1.11 0.66,3.46 -1.04,5.35zm12.85,-23.77c-2.07,-0.46 -3.95,-1.5 -5.47,-3.02c-1.53,-1.53 -2.56,-3.41 -3.02,-5.48c3.32,-1.11 6.78,-1.73 10.31,-1.81c-0.09,3.55 -0.71,7 -1.82,10.31z" class="st4"/>
  <path fill="#505050" id="svg_13" d="m27.84,8.96c0.16,0 0.3,-0.04 0.43,-0.13c0.34,-0.23 0.42,-0.7 0.19,-1.04c-0.23,-0.33 -0.72,-0.42 -1.05,-0.19c-0.16,0.11 -0.27,0.28 -0.31,0.48c-0.03,0.2 0.01,0.4 0.13,0.56c0.14,0.2 0.37,0.32 0.61,0.32z" class="st4"/>
  <path fill="#505050" id="svg_14" d="m23.74,19.51c0,1.8 0.7,3.5 1.98,4.77c1.27,1.27 2.97,1.98 4.77,1.98c1.8,0 3.5,-0.7 4.77,-1.98c2.63,-2.63 2.63,-6.91 0,-9.55c-1.27,-1.27 -2.97,-1.98 -4.77,-1.98c-1.8,0 -3.5,0.7 -4.77,1.98c-1.27,1.28 -1.98,2.97 -1.98,4.78zm6.75,-5.25c1.4,0 2.72,0.55 3.71,1.54c2.05,2.05 2.05,5.38 0,7.42c-0.99,0.99 -2.31,1.54 -3.71,1.54s-2.72,-0.55 -3.71,-1.54s-1.54,-2.31 -1.54,-3.71c0,-1.4 0.55,-2.72 1.54,-3.71s2.31,-1.54 3.71,-1.54z" class="st4"/>
 </g>
</svg>