<svg version="1.1" id="Layer_1" xmlns="http://www.w3.org/2000/svg" x="0" y="0" viewBox="0 0 1470 1200" xml:space="preserve"><style>.st5{fill:#c5d3e3}</style><path d="M438.7 260.5c2.1-1.5 4.4-2.2 7-2 2.8.2 5.2 1.4 7.2 3.4l9.7 9.7c.1.1.2.3.2.4 0 .2 0 .3-.1.5s-.2.3-.3.4c-.2.1-.3.1-.5.1l-4.4-.3.6 4v.3c0 .1-.1.2-.1.2-.1.1-.1.2-.2.2-.2.2-.4.3-.6.2l-3.9-.6.6 3.9c0 .1 0 .3-.1.4-.1.1-.1.2-.2.3-.2.2-.4.3-.7.2l-4-.6.2 4.5c0 .2-.1.4-.3.6-.1.1-.2.1-.2.2-.2.1-.3.1-.5.1s-.3-.1-.4-.2l-9.7-9.7c-1.4-1.4-2.4-3.1-3-4.9-.5-1.9-.6-3.7-.2-5.6.4-1.8 1.3-3.4 2.7-4.8.5-.4.9-.7 1.2-.9zm21.4 10.7l-8.2-8.2c-1.2-1.2-2.7-2.1-4.2-2.5-1.6-.5-3.2-.5-4.8-.2-1.6.4-2.9 1.1-4 2.2s-1.8 2.5-2.2 4c-.4 1.6-.3 3.1.2 4.8.5 1.6 1.4 3 2.5 4.2l8.2 8.2-.2-3.4c0-.2.1-.4.2-.6l.1-.1.1-.1.1-.1h.4l3.9.6-.5-4c-.1-.3.1-.5.2-.7.2-.2.4-.3.6-.2l3.9.6-.6-3.9v-.4c.1-.1.1-.2.2-.3.2-.2.4-.3.6-.3l3.5.4zm-18.7-.9c.1-.1.2-.1.3-.2.1-.1.2-.1.3-.1h.6c.1 0 .2.1.3.1.1.1.2.1.3.2.1.1.2.1.3.2.3.3.5.7.5 1.1s-.2.8-.5 1.1-.7.5-1.1.5-.8-.2-1.1-.5-.5-.7-.5-1.1c0-.4.2-.8.5-1.1-.1-.1 0-.2.1-.2zm5.9-5.9c.2-.1.4-.1.6-.1.2 0 .4.1.6.1.2.1.4.2.5.4.3.3.5.7.5 1.1 0 .4-.2.8-.5 1.1-.2.2-.3.3-.5.4-.2.1-.4.1-.6.1-.2 0-.4-.1-.6-.1-.2-.1-.4-.2-.5-.4-.2-.2-.3-.4-.4-.7-.1-.3-.1-.5 0-.8.1-.3.2-.5.4-.7.2-.2.3-.3.5-.4z" fill="#8089ff"/><path d="M1036 300.9V313c0 .3-.1.5-.2.8-.2.3-.3.4-.6.6-.3.2-.5.2-.8.2H1012c-.4 0-.8-.2-1.1-.5-.3-.3-.5-.7-.5-1.1v-12c0-.6.2-1 .7-1.4l4.1-4.1v-2.7c0-.2.1-.4.2-.5.2-.2.3-.2.5-.2h2.7l2.9-2.5c.2-.2.4-.3.6-.4.2-.1.5-.2.7-.2.3-.1.5-.1.8 0s.5.1.7.2c.2.1.4.3.6.4l2.9 2.5h2.5c.2 0 .4.1.5.2.2.2.2.3.2.5v2.6l4.2 4.2.2.2c.1.1.1.1.1.2.1.1.1.1.1.2.1.1.1.1.1.2s.1.1.1.2v.2c.2 0 .2 0 .2.1zm-24 1.7v9.3l5.1-4.8-5.1-4.5zm.9-2.6l-.7.6 2.9 2.6v-5.5l-2.2 2.3zm.2 13h20.2l-9.6-8.7c-.2-.1-.4-.2-.6-.2-.2 0-.4.1-.6.2l-3.5 3.2c0 .1-.1.1-.1.1l-.1.1c-.1.1-.2.2-.3.2l-5.4 5.1zm3.7-19.3v11l1.5 1.4 3.2-3c.1-.1.2-.2.3-.2.1-.1.3-.1.4-.2.1-.1.2-.1.4-.1.1-.1.3-.1.4-.1h.4c.1 0 .3.1.4.1.1.1.3.1.4.1.1.1.2.1.3.2.1.1.2.2.3.2l3.4 3.1 1.4-1.3v-11.2h-12.8zm4.3-1.6h4.4l-1.6-1.4c-.1-.1-.2-.1-.3-.2-.1-.1-.2-.1-.3-.1-.2 0-.4.1-.6.2l-1.6 1.5zm13.4 19.7v-9l-5.1 4.5 5.1 4.5zm-3.3-14.1v5.7l3-2.7-1.4-1.4-1.6-1.6z" fill="#54ceff"/><path d="M984.9 629.4h-.4c-.1 0-.1 0-.2-.1-.1 0-.1-.1-.2-.1s-.1-.1-.2-.1-.1-.1-.2-.1c-.1-.1-.1-.1-.2-.1-.1-.1-.1-.1-.2-.1l-10.9-11c-.4-.4-.5-.8-.5-1.4s.2-1 .5-1.4l4-4c.1-.1.3-.2.4-.2.2-.1.3 0 .5.1s.3.2.3.4c.1.2.1.3.1.5-.1.1-.1.2-.1.3v.3c0 .6.2 1.1.4 1.6.3.5.6.9 1.2 1.2.5.3 1 .4 1.6.4.9 0 1.6-.3 2.2-.9.6-.6.9-1.4.9-2.3 0-.4-.1-.9-.2-1.2s-.4-.7-.6-1c-.3-.3-.6-.5-1-.7-.4-.2-.8-.3-1.2-.3-.2 0-.3 0-.6.1-.4.1-.6-.1-.9-.4-.2-.3-.1-.6.2-.9l3.7-3.8c.2-.2.4-.3.6-.4.2-.1.5-.2.7-.2s.5.1.7.2c.2.1.4.2.6.4l2.8 2.8c.3-.9.8-1.6 1.6-2.2.8-.6 1.6-.9 2.6-.9.6 0 1.2.1 1.7.3.5.2 1 .5 1.4.9s.7.9.9 1.4c.2.5.3 1.1.3 1.7 0 .4-.1.8-.2 1.1s-.2.7-.4 1l-.6.9c-.3.3-.5.5-.9.7-.3.2-.6.4-1 .5l2.7 2.7c.4.4.5.8.5 1.4 0 .5-.2 1-.5 1.4l-10.9 11c0 .3-.5.5-1 .5zm-8.4-15.7l-2.7 2.7c-.2.2-.2.3 0 .4l10.9 11c.2.1.3.1.4 0l10.9-11 .1-.1v-.2c0-.1-.1-.1-.1-.2l-3.8-3.8c-.3-.3-.3-.6-.2-.9.2-.3.4-.5.8-.4h.3c.8 0 1.5-.3 2-.8s.8-1.2.8-2-.3-1.5-.8-2-1.2-.8-2-.8c-.4 0-.7.1-1.1.2-.3.2-.6.3-.9.6-.3.3-.4.5-.6.9-.2.3-.2.7-.2 1.1v.7c-.1.1-.1.2-.2.3-.1.1-.2.2-.3.2-.3.2-.6.1-.9-.2l-4-4-.1-.1-.1-.1h-.1s-.1 0-.1.1c-.1 0-.1.1-.1.1l-2.4 2.4c1 .3 1.9.8 2.5 1.7s1 1.8 1 3c0 .4-.1.9-.2 1.3s-.3.8-.5 1.1c-.2.3-.4.7-.7 1-.3.3-.6.5-.9.8-.3.2-.7.4-1.1.5-.4.1-.8.2-1.2.2-.2 0-.4 0-.6-.1-.2-.1-.4-.1-.6-.2-.2-.1-.4-.1-.6-.2-.2-.1-.4-.2-.5-.3-.2-.1-.3-.2-.5-.3-.2-.1-.3-.3-.5-.4-.2-.2-.3-.3-.4-.5-.1-.2-.2-.4-.3-.5-.1-.2-.2-.4-.3-.5 0-.3-.1-.5-.1-.7z" fill="#84ce65"/><path d="M414.6 639.8h-1.2c-.1 0-.2-.1-.3-.1-.1.2-.4.4-.8.7-.4.3-.9.6-1.4 1-.5.3-1.1.6-1.7 1-.6.3-1.2.5-1.6.5h-.4c-.1 0-.1-.1-.1-.1-.1 0-.1-.1-.1-.1-.1 0-.1-.1-.1-.1 0-.1-.1-.1-.1-.1l-.1-.1v-.2c0-.1 0-.2.1-.2.9-1.6 1.4-2.7 1.4-3.5v-.1c-1.3-.6-2.3-1.6-3-2.9-.7-1.3-1-2.7-1-4.1s.5-2.8 1.4-4 2.2-2.2 3.8-2.9c1.6-.7 3.4-1 5.3-1 .7 0 1.4.1 2.1.2.7.1 1.4.3 1.9.4.6.2 1.2.4 1.8.7.5.3 1.1.6 1.5 1 .4.3.9.8 1.2 1.1.4.4.7.9 1 1.4.3.5.4 1 .6 1.5.2.5.2 1 .2 1.6 0 1.6-.4 3-1.3 4.3-.9 1.2-2.1 2.2-3.7 2.9-1.6.7-3.3 1-5.2 1 0 .2-.1.2-.2.2zm-1.2-1.7c.5.1 1 .1 1.5.1 1.2 0 2.3-.2 3.4-.5s1.9-.8 2.7-1.4c.8-.6 1.4-1.3 1.8-2.1.4-.8.6-1.7.6-2.7 0-1.1-.4-2.2-1.2-3.1-.8-1-1.8-1.7-3.2-2.3s-2.8-.8-4.4-.8-3.1.3-4.4.8-2.4 1.3-3.2 2.3c-.8 1-1.2 2-1.2 3.1s.3 2.2.8 3.2 1.4 1.8 2.4 2.3l.9.4-.1 1v.2c0 .1-.1.3-.2.6s-.2.8-.4 1.2c.4-.3.9-.5 1.3-.9s.8-.6.9-.8l1-.9 1 .3zm13 5.3c0 .3.1.6.1.9.1.3.1.6.2.9l.3.9c.1.3.2.5.3.6.1.1.1.1.1.2 0 .2-.1.3-.2.4-.1.1-.2.2-.4.2h-.2c-.8-.1-1.6-.5-2.4-1.2-.9-.6-1.5-1.2-1.9-1.6-.3.1-.6.1-1 .1h-.6c-.6 0-1.3-.1-1.9-.2s-1.2-.2-1.7-.4l-1.5-.6c-.5-.2-.9-.5-1.3-.9s-.8-.7-1.1-1.1h2.3c1.4 1 3.1 1.6 5.1 1.6h.7c.2 0 .3 0 .4-.1l.9-.1.1.1c.1.1.1.2.2.3.1.1.2.3.4.4.2.2.3.4.6.6s.5.4.8.6c-.1-.3-.2-1.2-.2-2.6l.8-.4c.5-.3.9-.5 1.2-.8l.9-.9c.2-.3.4-.7.5-1 .1-.4.2-.8.2-1.2 0-.8-.1-1.4-.4-1.9-.3-.5-.7-1-1.4-1.5.2-.6.3-1.2.4-1.7 1.9 1.1 3 2.9 3 5.1.2 2.3-.9 4.1-3.3 5.3z" fill="#fe60a1"/><path class="st5" d="M949.7 201c4 0 7.2-3.2 7.2-7.2s-3.2-7.2-7.2-7.2-7.2 3.2-7.2 7.2c0 3.9 3.2 7.2 7.2 7.2zm0-11.9c2.6 0 4.7 2.1 4.7 4.7s-2.1 4.7-4.7 4.7-4.7-2.1-4.7-4.7c.1-2.6 2.1-4.7 4.7-4.7zm323 202.9c4 0 7.2-3.2 7.2-7.2s-3.2-7.2-7.2-7.2-7.2 3.2-7.2 7.2c.1 3.9 3.3 7.2 7.2 7.2zm0-11.9c2.6 0 4.7 2.1 4.7 4.7s-2.1 4.7-4.7 4.7-4.7-2.1-4.7-4.7c.1-2.6 2.1-4.7 4.7-4.7zm158.8 201.3c4 0 7.2-3.2 7.2-7.2s-3.2-7.2-7.2-7.2-7.2 3.2-7.2 7.2c.1 4 3.4 7.2 7.2 7.2zm0-11.8c2.6 0 4.7 2.1 4.7 4.7s-2.1 4.7-4.7 4.7-4.7-2.1-4.7-4.7c.2-2.7 2.3-4.7 4.7-4.7zM515.1 357.5c4 0 7.2-3.2 7.2-7.2s-3.2-7.2-7.2-7.2-7.2 3.2-7.2 7.2 3.3 7.2 7.2 7.2zm0-11.8c2.6 0 4.7 2.1 4.7 4.7s-2.1 4.7-4.7 4.7-4.7-2.1-4.7-4.7c.1-2.7 2.2-4.7 4.7-4.7zm68.7 550.8c4 0 7.2-3.2 7.2-7.2s-3.2-7.2-7.2-7.2-7.2 3.2-7.2 7.2c.1 3.9 3.3 7.2 7.2 7.2zm0-11.9c2.6 0 4.7 2.1 4.7 4.7s-2.1 4.7-4.7 4.7-4.7-2.1-4.7-4.7c.1-2.6 2.2-4.7 4.7-4.7zM377.1 601.9c4 0 7.2-3.2 7.2-7.2s-3.2-7.2-7.2-7.2-7.2 3.2-7.2 7.2c0 3.9 3.3 7.2 7.2 7.2zm0-11.8c2.6 0 4.7 2.1 4.7 4.7s-2.1 4.7-4.7 4.7-4.7-2.1-4.7-4.7c.1-2.6 2.2-4.7 4.7-4.7zM33.5 631c4 0 7.2-3.2 7.2-7.2s-3.2-7.2-7.2-7.2-7.2 3.2-7.2 7.2c-.1 3.9 3.2 7.2 7.2 7.2zm0-11.9c2.6 0 4.7 2.1 4.7 4.7s-2.1 4.7-4.7 4.7-4.7-2.1-4.7-4.7c.1-2.6 2.1-4.7 4.7-4.7zm603.7-382.6c4 0 7.2-3.2 7.2-7.2s-3.2-7.2-7.2-7.2-7.2 3.2-7.2 7.2c-.1 3.9 3.2 7.2 7.2 7.2zm0-11.9c2.6 0 4.7 2.1 4.7 4.7s-2.1 4.7-4.7 4.7-4.7-2.1-4.7-4.7 2.1-4.7 4.7-4.7zm743.2 595.3c4 0 7.2-3.2 7.2-7.2s-3.2-7.2-7.2-7.2-7.2 3.2-7.2 7.2c0 3.9 3.2 7.2 7.2 7.2zm0-11.9c2.6 0 4.7 2.1 4.7 4.7s-2.1 4.7-4.7 4.7-4.7-2.1-4.7-4.7 2.1-4.7 4.7-4.7zM649.1 981.2c4 0 7.2-3.2 7.2-7.2s-3.2-7.2-7.2-7.2-7.2 3.2-7.2 7.2c0 3.9 3.2 7.2 7.2 7.2zm0-11.9c2.6 0 4.7 2.1 4.7 4.7s-2.1 4.7-4.7 4.7-4.7-2.1-4.7-4.7 2.1-4.7 4.7-4.7zm537.8 57.8c4 0 7.2-3.2 7.2-7.2s-3.2-7.2-7.2-7.2-7.2 3.2-7.2 7.2c0 3.9 3.3 7.2 7.2 7.2zm0-11.9c2.6 0 4.7 2.1 4.7 4.7s-2.1 4.7-4.7 4.7-4.7-2.1-4.7-4.7 2.2-4.7 4.7-4.7zm5.8-258.8c4 0 7.2-3.2 7.2-7.2s-3.2-7.2-7.2-7.2-7.2 3.2-7.2 7.2c0 3.9 3.2 7.2 7.2 7.2zm0-11.9c2.6 0 4.7 2.1 4.7 4.7s-2.1 4.7-4.7 4.7-4.7-2.1-4.7-4.7 2.1-4.7 4.7-4.7zm-155.6 181.9c4 0 7.2-3.2 7.2-7.2s-3.2-7.2-7.2-7.2-7.2 3.2-7.2 7.2c0 3.9 3.3 7.2 7.2 7.2zm0-11.9c2.6 0 4.7 2.1 4.7 4.7s-2.1 4.7-4.7 4.7-4.7-2.1-4.7-4.7 2.1-4.7 4.7-4.7zm224.5-357c4 0 7.2-3.2 7.2-7.2s-3.2-7.2-7.2-7.2-7.2 3.2-7.2 7.2c0 3.9 3.2 7.2 7.2 7.2zm0-11.9c2.6 0 4.7 2.1 4.7 4.7s-2.1 4.7-4.7 4.7-4.7-2.1-4.7-4.7 2.1-4.7 4.7-4.7zm-216-425.5c4 0 7.2-3.2 7.2-7.2s-3.2-7.2-7.2-7.2-7.2 3.2-7.2 7.2c0 3.9 3.2 7.2 7.2 7.2zm0-11.8c2.6 0 4.7 2.1 4.7 4.7s-2.1 4.7-4.7 4.7-4.7-2.1-4.7-4.7 2.1-4.7 4.7-4.7zm-46.2 648.1l3.2-3.2c.5-.5.5-1.3 0-1.8s-1.3-.5-1.8 0l-3.2 3.2-3.2-3.2c-.5-.5-1.3-.5-1.8 0s-.5 1.3 0 1.8l3.2 3.2-3.2 3.2c-.5.5-.5 1.3 0 1.8s1.3.5 1.8 0l3.2-3.2 3.2 3.2c.5.5 1.3.5 1.8 0s.5-1.3 0-1.8l-3.2-3.2zM723.1 159h4.5c.7 0 1.2-.6 1.2-1.2 0-.7-.6-1.2-1.2-1.2h-4.5V152c0-.7-.6-1.2-1.2-1.2s-1.2.6-1.2 1.2v4.5h-4.5c-.7 0-1.2.6-1.2 1.2s.6 1.2 1.2 1.2h4.5v4.5c0 .7.6 1.2 1.2 1.2.7 0 1.2-.6 1.2-1.2V159zm402.5 81h4.5c.7 0 1.2-.6 1.2-1.2s-.6-1.2-1.2-1.2h-4.5v-4.5c0-.7-.6-1.2-1.2-1.2s-1.2.6-1.2 1.2v4.5h-4.5c-.7 0-1.2.6-1.2 1.2s.6 1.2 1.2 1.2h4.5v4.5c0 .7.6 1.2 1.2 1.2s1.2-.6 1.2-1.2V240zM243 486.2h4.5c.7 0 1.2-.6 1.2-1.2 0-.7-.6-1.2-1.2-1.2H243v-4.5c0-.7-.6-1.2-1.2-1.2-.7 0-1.2.6-1.2 1.2v4.5H236c-.7 0-1.2.6-1.2 1.2 0 .7.6 1.2 1.2 1.2h4.5v4.5c0 .7.6 1.2 1.2 1.2s1.2-.6 1.2-1.2l.1-4.5zm110.6-248.7h4.5c.7 0 1.2-.6 1.2-1.2s-.6-1.2-1.2-1.2h-4.5v-4.5c0-.7-.6-1.2-1.2-1.2s-1.2.6-1.2 1.2v4.5h-4.5c-.7 0-1.2.6-1.2 1.2 0 .7.6 1.2 1.2 1.2h4.5v4.5c0 .7.6 1.2 1.2 1.2.7 0 1.2-.6 1.2-1.2v-4.5zm170-109h4.5c.7 0 1.2-.6 1.2-1.2 0-.7-.6-1.2-1.2-1.2h-4.5v-4.5c0-.7-.6-1.2-1.2-1.2s-1.2.6-1.2 1.2v4.5h-4.5c-.7 0-1.2.6-1.2 1.2 0 .7.6 1.2 1.2 1.2h4.5v4.5c0 .7.6 1.2 1.2 1.2.7 0 1.2-.6 1.2-1.2v-4.5zm-21 790.7l3.2-3.2c.5-.5.5-1.3 0-1.8s-1.3-.5-1.8 0l-3.2 3.2-3.2-3.2c-.5-.5-1.3-.5-1.8 0s-.5 1.3 0 1.8l3.2 3.2-3.2 3.2c-.5.5-.5 1.3 0 1.8s1.3.5 1.8 0l3.2-3.2 3.2 3.2c.5.5 1.3.5 1.8 0s.5-1.3 0-1.8l-3.2-3.2zM810 1088.8l3.2-3.2c.5-.5.5-1.3 0-1.8s-1.3-.5-1.8 0l-3.2 3.2-3.2-3.2c-.5-.5-1.3-.5-1.8 0s-.5 1.3 0 1.8l3.2 3.2-3.2 3.2c-.5.5-.5 1.3 0 1.8s1.3.5 1.8 0l3.2-3.2 3.2 3.2c.5.5 1.3.5 1.8 0s.5-1.3 0-1.8l-3.2-3.2zm112.3-174.3l3.2-3.2c.5-.5.5-1.3 0-1.8s-1.3-.5-1.8 0l-3.2 3.2-3.2-3.2c-.5-.5-1.3-.5-1.8 0s-.5 1.3 0 1.8l3.2 3.2-3.2 3.2c-.5.5-.5 1.3 0 1.8s1.3.5 1.8 0l3.2-3.2 3.2 3.2c.5.5 1.3.5 1.8 0s.5-1.3 0-1.8l-3.2-3.2zm365.7 4.7l3.2-3.2c.5-.5.5-1.3 0-1.8s-1.3-.5-1.8 0l-3.2 3.2-3.2-3.2c-.5-.5-1.3-.5-1.8 0s-.5 1.3 0 1.8l3.2 3.2-3.2 3.2c-.5.5-.5 1.3 0 1.8s1.3.5 1.8 0l3.2-3.2 3.2 3.2c.5.5 1.3.5 1.8 0s.5-1.3 0-1.8l-3.2-3.2zm-237.7-493.1l3.2-3.2c.5-.5.5-1.3 0-1.8s-1.3-.5-1.8 0l-3.2 3.2-3.2-3.2c-.5-.5-1.3-.5-1.8 0s-.5 1.3 0 1.8l3.2 3.2-3.2 3.2c-.5.5-.5 1.3 0 1.8s1.3.5 1.8 0l3.2-3.2 3.2 3.2c.5.5 1.3.5 1.8 0s.5-1.3 0-1.8l-3.2-3.2zM359.4 891.6l3.2-3.2c.5-.5.5-1.3 0-1.8s-1.3-.5-1.8 0l-3.2 3.2-3.2-3.2c-.5-.5-1.3-.5-1.8 0s-.5 1.3 0 1.8l3.2 3.2-3.2 3.2c-.5.5-.5 1.3 0 1.8s1.3.5 1.8 0l3.2-3.2 3.2 3.2c.5.5 1.3.5 1.8 0s.5-1.3 0-1.8l-3.2-3.2zM138.9 668.4l3.2-3.2c.5-.5.5-1.3 0-1.8s-1.3-.5-1.8 0l-3.2 3.2-3.2-3.2c-.5-.5-1.3-.5-1.8 0s-.5 1.3 0 1.8l3.2 3.2-3.2 3.2c-.5.5-.5 1.3 0 1.8s1.3.5 1.8 0l3.2-3.2 3.2 3.2c.5.5 1.3.5 1.8 0s.5-1.3 0-1.8l-3.2-3.2zm1192.2-390.6l3.2-3.2c.5-.5.5-1.3 0-1.8s-1.3-.5-1.8 0l-3.2 3.2-3.2-3.2c-.5-.5-1.3-.5-1.8 0s-.5 1.3 0 1.8l3.2 3.2-3.2 3.2c-.5.5-.5 1.3 0 1.8s1.3.5 1.8 0l3.2-3.2 3.2 3.2c.5.5 1.3.5 1.8 0s.5-1.3 0-1.8l-3.2-3.2zm46.4 181.5l3.2-3.2c.5-.5.5-1.3 0-1.8s-1.3-.5-1.8 0l-3.2 3.2-3.2-3.2c-.5-.5-1.3-.5-1.8 0s-.5 1.3 0 1.8l3.2 3.2-3.2 3.2c-.5.5-.5 1.3 0 1.8s1.3.5 1.8 0l3.2-3.2 3.2 3.2c.5.5 1.3.5 1.8 0s.5-1.3 0-1.8l-3.2-3.2zm-232.2 426.5h4.5c.7 0 1.2-.6 1.2-1.2s-.6-1.2-1.2-1.2h-4.5v-4.5c0-.7-.6-1.2-1.2-1.2s-1.2.6-1.2 1.2v4.5h-4.5c-.7 0-1.2.6-1.2 1.2s.6 1.2 1.2 1.2h4.5v4.5c0 .7.6 1.2 1.2 1.2s1.2-.6 1.2-1.2v-4.5zm-979.7 34.6h4.5c.7 0 1.2-.6 1.2-1.2s-.6-1.2-1.2-1.2h-4.5v-4.5c0-.7-.6-1.2-1.2-1.2s-1.2.6-1.2 1.2v4.5h-4.5c-.7 0-1.2.6-1.2 1.2s.6 1.2 1.2 1.2h4.5v4.5c0 .7.6 1.2 1.2 1.2s1.2-.6 1.2-1.2v-4.5zM1072 1003h4.5c.7 0 1.2-.6 1.2-1.2s-.6-1.2-1.2-1.2h-4.5V996c0-.7-.6-1.2-1.2-1.2s-1.2.6-1.2 1.2v4.5h-4.5c-.7 0-1.2.6-1.2 1.2s.6 1.2 1.2 1.2h4.5v4.5c0 .7.6 1.2 1.2 1.2s1.2-.6 1.2-1.2v-4.4zm-442.5 74.7h4.5c.7 0 1.2-.6 1.2-1.2s-.6-1.2-1.2-1.2h-4.5v-4.5c0-.7-.6-1.2-1.2-1.2s-1.2.6-1.2 1.2v4.5h-4.5c-.7 0-1.2.6-1.2 1.2s.6 1.2 1.2 1.2h4.5v4.5c0 .7.6 1.2 1.2 1.2s1.2-.6 1.2-1.2v-4.5zm-339-272.8h-3.6v-3.6c0-.6-.5-1-1-1s-1 .5-1 1v3.6h-3.6c-.6 0-1 .5-1 1s.5 1 1 1h3.6v3.6c0 .6.5 1 1 1s1-.5 1-1v-3.6h3.6c.6 0 1-.5 1-1s-.4-1-1-1zm981.2-339.6h-3.6v-3.6c0-.6-.5-1-1-1-.6 0-1 .5-1 1v3.6h-3.6c-.6 0-1 .5-1 1s.5 1 1 1h3.6v3.6c0 .6.5 1 1 1 .6 0 1-.5 1-1v-3.6h3.6c.6 0 1-.5 1-1s-.5-1-1-1zm-84.2 67.1h-3.6v-3.6c0-.6-.5-1-1-1-.6 0-1 .5-1 1v3.6h-3.6c-.6 0-1 .5-1 1s.5 1 1 1h3.6v3.6c0 .6.5 1 1 1 .6 0 1-.5 1-1v-3.6h3.6c.6 0 1-.5 1-1 0-.6-.5-1-1-1zm170.6 140.3h-3.6v-3.6c0-.6-.5-1-1-1s-1 .5-1 1v3.6h-3.6c-.6 0-1 .5-1 1s.5 1 1 1h3.6v3.6c0 .6.5 1 1 1s1-.5 1-1v-3.6h3.6c.6 0 1-.5 1-1-.1-.5-.5-1-1-1zm-176.9-64.1l-2.6-2.6 2.6-2.6c.4-.4.4-1 0-1.4s-1-.4-1.4 0l-2.6 2.6-2.6-2.6c-.4-.4-1-.4-1.4 0s-.4 1 0 1.4l2.6 2.6-2.6 2.6c-.4.4-.4 1 0 1.4s1 .4 1.4 0l2.6-2.6 2.6 2.6c.4.4 1 .4 1.4 0s.4-1.1 0-1.4zm-764.1-72.4c-1.5 0-2.8 1.2-2.8 2.8 0 1.5 1.2 2.8 2.8 2.8s2.8-1.2 2.8-2.8c-.1-1.6-1.3-2.8-2.8-2.8zm-298 273.3c-1.5 0-2.8 1.2-2.8 2.8 0 1.5 1.2 2.8 2.8 2.8s2.8-1.2 2.8-2.8c-.1-1.6-1.3-2.8-2.8-2.8zM87.6 521.8c-1.5 0-2.8 1.2-2.8 2.8 0 1.5 1.2 2.8 2.8 2.8s2.8-1.2 2.8-2.8c0-1.6-1.3-2.8-2.8-2.8zm270 454.1c-1.5 0-2.8 1.2-2.8 2.8 0 1.5 1.2 2.8 2.8 2.8s2.8-1.2 2.8-2.8c0-1.6-1.3-2.8-2.8-2.8zM164.4 334.5c-1.5 0-2.8 1.2-2.8 2.8 0 1.5 1.2 2.8 2.8 2.8s2.8-1.2 2.8-2.8c-.1-1.5-1.3-2.8-2.8-2.8zm906.4 244.1c-1.5 0-2.8 1.2-2.8 2.8 0 1.5 1.2 2.8 2.8 2.8 1.5 0 2.8-1.2 2.8-2.8-.1-1.6-1.3-2.8-2.8-2.8zm186 63.3c-1.5 0-2.8 1.2-2.8 2.8 0 1.5 1.2 2.8 2.8 2.8 1.5 0 2.8-1.2 2.8-2.8-.1-1.6-1.3-2.8-2.8-2.8zm-95.5-330.2c-1.5 0-2.8 1.2-2.8 2.8 0 1.5 1.2 2.8 2.8 2.8 1.5 0 2.8-1.2 2.8-2.8-.1-1.6-1.3-2.8-2.8-2.8zm-64 374.6c-1.5 0-2.8 1.2-2.8 2.8 0 1.5 1.2 2.8 2.8 2.8 1.5 0 2.8-1.2 2.8-2.8s-1.2-2.8-2.8-2.8zM975.9 992c-1.5 0-2.8 1.2-2.8 2.8 0 1.5 1.2 2.8 2.8 2.8 1.5 0 2.8-1.2 2.8-2.8 0-1.6-1.2-2.8-2.8-2.8zm289.3-674.8c-1.5 0-2.8 1.2-2.8 2.8 0 1.5 1.2 2.8 2.8 2.8 1.5 0 2.8-1.2 2.8-2.8 0-1.6-1.2-2.8-2.8-2.8zm-277.6-2.7c-1.5 0-2.8 1.2-2.8 2.8 0 1.5 1.2 2.8 2.8 2.8s2.8-1.2 2.8-2.8c0-1.6-1.2-2.8-2.8-2.8zm163.5 78.4c-1.5 0-2.8 1.2-2.8 2.8 0 1.5 1.2 2.8 2.8 2.8 1.6 0 2.8-1.2 2.8-2.8-.1-1.5-1.3-2.8-2.8-2.8zM889.3 127.2c-1.5 0-2.8 1.2-2.8 2.8 0 1.5 1.2 2.8 2.8 2.8s2.8-1.2 2.8-2.8c0-1.5-1.2-2.8-2.8-2.8zM686.5 849.6c-1.5 0-2.8 1.2-2.8 2.8 0 1.5 1.2 2.8 2.8 2.8 1.5 0 2.8-1.2 2.8-2.8-.1-1.5-1.3-2.8-2.8-2.8zm-123.7 154.8c-1.5 0-2.8 1.2-2.8 2.8 0 1.5 1.2 2.8 2.8 2.8 1.5 0 2.8-1.2 2.8-2.8-.1-1.5-1.3-2.8-2.8-2.8zm262 2.8c-1.5 0-2.8 1.2-2.8 2.8 0 1.5 1.2 2.8 2.8 2.8 1.5 0 2.8-1.2 2.8-2.8-.1-1.6-1.3-2.8-2.8-2.8zm-135.5 38c-1.5 0-2.8 1.2-2.8 2.8 0 1.5 1.2 2.8 2.8 2.8 1.5 0 2.8-1.2 2.8-2.8-.1-1.5-1.3-2.8-2.8-2.8zm105-148.7c-1.5 0-2.8 1.2-2.8 2.8 0 1.5 1.2 2.8 2.8 2.8 1.5 0 2.8-1.2 2.8-2.8 0-1.7-1.3-2.8-2.8-2.8zm425.8-28.8c-1.5 0-2.8 1.2-2.8 2.8 0 1.5 1.2 2.8 2.8 2.8 1.5 0 2.8-1.2 2.8-2.8s-1.3-2.8-2.8-2.8zM579.2 771c-1.5 0-2.8 1.2-2.8 2.8 0 1.5 1.2 2.8 2.8 2.8s2.8-1.2 2.8-2.8c-.1-1.7-1.3-2.8-2.8-2.8zM425.1 408.1c-1.5 0-2.8 1.2-2.8 2.8 0 1.6 1.2 2.8 2.8 2.8 1.5 0 2.8-1.2 2.8-2.8 0-1.6-1.3-2.8-2.8-2.8zM645.5 309c-1.5 0-2.8 1.2-2.8 2.8 0 1.5 1.2 2.8 2.8 2.8s2.8-1.2 2.8-2.8c-.1-1.6-1.3-2.8-2.8-2.8zM390.3 155.9c-1 3.9 1.3 7.8 5.2 8.8 3.9 1 7.8-1.3 8.8-5.2 1-3.9-1.3-7.8-5.2-8.8-3.9-.9-7.8 1.4-8.8 5.2zm11.4 3c-.6 2.5-3.2 4-5.7 3.3-2.5-.6-4-3.2-3.3-5.7s3.2-4 5.7-3.3c2.5.7 4 3.3 3.3 5.7zm365.2-72.2c-1 3.9 1.3 7.8 5.2 8.8 3.9 1 7.8-1.3 8.8-5.2 1-3.9-1.3-7.8-5.2-8.8-3.8-.9-7.8 1.4-8.8 5.2zm11.5 3c-.6 2.5-3.2 4-5.7 3.3s-4-3.2-3.3-5.7c.6-2.5 3.2-4 5.7-3.3 2.5.7 3.9 3.3 3.3 5.7zM124.8 437.6c-1 3.9 1.3 7.8 5.2 8.8 3.9 1 7.8-1.3 8.8-5.2s-1.3-7.8-5.2-8.8c-3.8-.9-7.8 1.4-8.8 5.2zm11.5 3c-.6 2.5-3.2 4-5.7 3.3-2.5-.6-4-3.2-3.3-5.7.6-2.5 3.2-4 5.7-3.3 2.4.8 3.9 3.3 3.3 5.7zm70.3 299.5c-1 3.9 1.3 7.8 5.2 8.8 3.9 1 7.8-1.3 8.8-5.2s-1.3-7.8-5.2-8.8c-3.8-.9-7.8 1.4-8.8 5.2zm11.5 3c-.6 2.5-3.2 4-5.7 3.3-2.5-.6-4-3.2-3.3-5.7.6-2.5 3.2-4 5.7-3.3 2.4.7 4 3.2 3.3 5.7zm185-412.1l2.3 3.9c.3.6 1.2.8 1.7.4.6-.3.8-1.2.4-1.7l-2.3-3.9 3.9-2.3c.6-.3.8-1.2.4-1.7-.3-.6-1.2-.8-1.7-.4l-3.9 2.3-2.3-3.9c-.3-.6-1.2-.8-1.7-.4-.6.3-.8 1.2-.4 1.7l2.3 3.9-3.9 2.3c-.6.3-.8 1.2-.4 1.7.3.6 1.2.8 1.7.4l3.9-2.3zm-194.6-74.7l2.3 3.9c.3.6 1.2.8 1.7.4.6-.3.8-1.2.4-1.7l-2.3-3.9 3.9-2.3c.6-.3.8-1.2.4-1.7-.3-.6-1.2-.8-1.7-.4l-3.9 2.3-2.3-3.9c-.3-.6-1.2-.8-1.7-.4-.6.3-.8 1.2-.4 1.7l2.3 3.9-3.9 2.3c-.6.3-.8 1.2-.4 1.7.3.6 1.2.8 1.7.4l3.9-2.3zm813.3-30.3l-.6 4.5c-.1.6.4 1.3 1.1 1.4s1.3-.4 1.4-1.1l.6-4.5 4.5.6c.6.1 1.3-.4 1.4-1.1s-.4-1.3-1.1-1.4l-4.5-.6.6-4.5c.1-.6-.4-1.3-1.1-1.4-.6-.1-1.3.4-1.4 1.1l-.6 4.5-4.5-.6c-.6-.1-1.3.4-1.4 1.1-.1.6.4 1.3 1.1 1.4l4.5.6zm256 551.5l-.6 4.5c-.1.6.4 1.3 1.1 1.4s1.3-.4 1.4-1.1l.6-4.5 4.5.6c.6.1 1.3-.4 1.4-1.1.1-.6-.4-1.3-1.1-1.4l-4.5-.6.6-4.5c.1-.6-.4-1.3-1.1-1.4-.6-.1-1.3.4-1.4 1.1l-.6 4.5-4.5-.6c-.6-.1-1.3.4-1.4 1.1-.1.6.4 1.3 1.1 1.4l4.5.6zM536.9 197.2c.4-1.5-.4-3-2-3.4-1.5-.4-3 .4-3.4 2-.4 1.5.4 3 2 3.4 1.5.3 3-.5 3.4-2zm105.7-80.8c.4-1.5-.4-3-2-3.4-1.5-.4-3 .4-3.4 2s.4 3 2 3.4c1.5.2 3-.6 3.4-2zM306.3 408.8c.4-1.5-.4-3-2-3.4-1.5-.4-3 .4-3.4 2-.4 1.5.4 3 2 3.4 1.6.4 3.1-.6 3.4-2zm147.9-164.6c.4-1.5-.4-3-2-3.4-1.5-.4-3 .4-3.4 2-.4 1.5.4 3 2 3.4 1.5.3 3-.6 3.4-2zm449.2-207c.4-1.5-.4-3-2-3.4-1.5-.4-3 .4-3.4 2-.4 1.5.4 3 2 3.4 1.5.3 3-.6 3.4-2zm.1 282.7c1.4 0 2.6-1.2 2.6-2.6 0-1.4-1.2-2.6-2.6-2.6-1.4 0-2.6 1.2-2.6 2.6.1 1.4 1.2 2.6 2.6 2.6zM412 733.2c1.4 0 2.6-1.2 2.6-2.6s-1.2-2.6-2.6-2.6-2.6 1.2-2.6 2.6c0 1.5 1.1 2.6 2.6 2.6zm578.3 129.3c1.4 0 2.6-1.2 2.6-2.6s-1.2-2.6-2.6-2.6-2.6 1.2-2.6 2.6c0 1.5 1.1 2.6 2.6 2.6zm124.4-44.6c1.4 0 2.6-1.2 2.6-2.6s-1.2-2.6-2.6-2.6-2.6 1.2-2.6 2.6c.1 1.5 1.2 2.6 2.6 2.6zM834.2 301.8c-1.4 0-2.6-.5-3.6-1.6-1.1-1.1-1.6-2.5-1.6-4.1 0-1.6.5-3 1.6-4.1l17.4-18.6c.9-.9 1.9-1.5 3.1-1.8 1.2-.3 2.4-.2 3.5.2 1.2.4 2.3 1.1 3.3 2.1.3.3.7.7.9 1.1s.5.9.7 1.3c.2.5.3.9.4 1.4.1.5.1 1 .1 1.5-.1 2.2-.8 3.9-2.2 5.4l-13.2 14c-.2.2-.4.3-.7.3s-.5-.1-.7-.3c-.2-.2-.3-.4-.3-.7 0-.3.1-.5.3-.7l13.2-14c1-1.1 1.6-2.4 1.6-4.1s-.5-3-1.6-4c-.7-.7-1.4-1.2-2.2-1.5-.8-.3-1.6-.5-2.6-.3s-1.7.5-2.4 1.2l-17.4 18.6c-.7.7-1.1 1.6-1.1 2.7 0 1 .4 2 1.1 2.7.3.3.7.6 1.1.8.4.2.9.3 1.2.2.9-.1 1.7-.5 2.5-1.2l13.9-14.8.3-.3c.1-.1.2-.3.3-.4.1-.1.2-.3.3-.5.1-.2.1-.3.1-.5s0-.3-.1-.5-.2-.3-.4-.5c-.4-.4-.8-.6-1.1-.5-.4.1-.9.3-1.3.8l-10.4 11.1c-.1.1-.3.2-.4.3-.1.1-.3.1-.5 0s-.3-.1-.5-.3c-.2-.2-.3-.4-.3-.7s.1-.5.3-.7l10.4-11.1c.9-.8 1.6-1.2 2.5-1.3 1-.1 1.8.3 2.7 1.1.8.7 1.1 1.6 1 2.6-.1 1-.6 2-1.4 2.9l-13.9 14.7c-1.1 1.1-2.4 1.8-3.8 1.8h-.1c.1.3 0 .3 0 .3zM476.7 837.9c.2.1.4.3.5.5.1.2.2.5.2.7v16.6c0 .4-.1.7-.4 1-.3.3-.6.4-1 .4h-20.2c-.4 0-.7-.1-1-.4-.3-.3-.4-.6-.4-1v-16.6c0-.4.1-.7.4-1 .3-.3.6-.4 1-.4H476c.2 0 .5.1.7.2zm-.7 1.3h-20.2v10.3l5.3-5.1c.1-.1.3-.2.5-.2s.4.1.5.3l5.9 5.9 2.7-2.4c.1-.1.3-.2.5-.1.2 0 .3.1.5.2l4.2 4.3.1-13.2zm0 15.2c-.1 0-.1 0 0 0l-4.8-5-2.6 2.4c-.1.1-.3.2-.5.2s-.3 0-.5-.2l-6-5.9-5.8 5.6v4.2H476v-1.3zm-6.1-9.9c-.3-.3-.4-.6-.4-1s.1-.7.4-1c.3-.3.6-.4 1-.4s.7.1 1 .4c.3.3.4.6.4 1 0 .3 0 .5-.2.7-.1.2-.3.4-.5.5-.2.1-.5.2-.7.2-.4 0-.7-.1-1-.4zm82.4-576.3s.1 0 .1.1.1.1.2.1.2.1.3.2l.2.2c0 .1.1.1.1.2v2.2c0 .3-.1.6-.3.9-.2.2-.5.3-.9.3h-15.6c-.3 0-.6-.1-.9-.3-.2-.2-.3-.5-.3-.9v-1.9c0-.2.1-.4.3-.6.2-.2.4-.3.5-.4.1-.1.2-.1.3-.2l4.7-2.5c-.8-.6-1.4-1.5-1.7-2.5-.4-1.1-.6-2-.6-2.9v-3.1c0-.4.1-.8.3-1.2.2-.4.5-.8.8-1.2.3-.3.8-.7 1.2-1s.9-.5 1.5-.7c.5-.1 1.1-.2 1.6-.2.9 0 1.8.2 2.6.6s1.5 1 2 1.7.8 1.3.8 2v3.1c0 .9-.1 1.9-.5 3-.3 1-.9 1.9-1.7 2.5l4.5 2.5h.5zm-.3 1.5c-.1-.1-.2-.1-.3-.2h-.1L547 267c-.4-.2-.7-.6-.7-1.2 0-.5.1-.9.5-1.3.5-.4 1-1.1 1.2-1.9.2-.8.4-1.6.4-2.3v-3.1c0-.6-.4-1.2-1.2-1.9-.8-.6-1.7-1-2.7-1-1 0-1.9.3-2.7 1-.8.6-1.3 1.3-1.3 1.9v3.1c0 .3 0 .6.1 1 0 .4.1.8.3 1.2.1.4.3.8.5 1.2.2.4.5.7.8.9.4.3.6.7.5 1.3v.2c0 .1 0 .1-.1.2 0 .1 0 .1-.1.2 0 0-.1.1-.1.2l-.1.1s-.1.1-.2.1l-4.7 2.5h-.1c-.1 0-.2.1-.3.2v1.3h15v-1.2zm5.5-5c.2.1.4.2.6.5.2.2.3.4.3.6v1.8c0 .2 0 .4-.1.6-.1.2-.2.3-.4.4-.2.1-.4.1-.6.1h-2.4c-.1-.2-.1-.4-.2-.6 0-.1-.1-.3-.2-.4s-.2-.3-.3-.4h2.9v-1.4h-.5l-4.6-2.5c-.1 0-.2-.1-.2-.2-.1 0-.1-.1-.2-.2 0-.1-.1-.1-.1-.2s-.1-.1-.1-.2v-.3c0-.5.1-.9.5-1.3.5-.4 1-1.1 1.3-1.9.3-.8.4-1.6.4-2.3v-3.1c0-.6-.4-1.2-1.3-1.9s-1.8-1-2.8-1c-1 0-1.9.3-2.8.9-.1 0-.2 0-.3-.1H545c.5-.6 1.2-1.2 2-1.6s1.7-.6 2.5-.6c.7 0 1.3.1 2 .4.7.2 1.3.6 1.8 1s.9.9 1.2 1.4c.3.5.5 1 .5 1.5v3.1c0 .4 0 .8-.1 1.3-.1.4-.2.9-.3 1.5-.1.5-.4 1-.7 1.5-.3.5-.6.9-1 1.2l4.6 2.5v-.1zm-43.7 544.8v4.5c0 .7.6 1.2 1.2 1.2s1.2-.6 1.2-1.2v-4.5h4.5c.7 0 1.2-.6 1.2-1.2s-.6-1.2-1.2-1.2h-4.5v-4.5c0-.7-.6-1.2-1.2-1.2s-1.2.6-1.2 1.2v4.5h-4.5c-.7 0-1.2.6-1.2 1.2s.6 1.2 1.2 1.2h4.5zm343.8-413.8H854c-.9 0-1.5-.1-2-.2s-.8-.2-.9-.2-.3-.2-.6-.4c-.2-.2-.6-.3-1.2-.4-.6-.1-1.5-.2-2.8-.3-.2 0-.4-.1-.5-.2 0 0-.1-.1-.2-.3-.1-.1-.2-.4-.3-.7-.1-.3-.3-.7-.4-1.1-.1-.4-.2-.9-.3-1.5-.1-.6-.1-1.2-.1-1.8 0-2.1.3-3.7 1.1-4.8.1-.2.3-.3.6-.3 1.2 0 2.5-.7 3.9-2.2s2.7-3.5 3.7-5.9c0 0 .1-.1.1-.3 0-.1.1-.2.1-.3 0 0 0-.1.1-.2 0-.1.1-.2.2-.2 0 0 .1-.1.2-.1s.2-.1.3-.1h.7c.2 0 .5 0 .8.2.3.1.5.3.7.4.2.2.4.4.5.6.3.4.4 1.1.5 1.9 0 .8 0 1.6-.1 2.3-.1.7-.2 1.4-.4 2h5.2c.8 0 1.5.2 2 .7.5.4.8 1.1.8 1.8 0 .6 0 1.1-.2 1.4.2.2.4.5.6.8.1.2.2.6.3.9 0 .7-.3 1.4-1 2 0 0 0 .1.1.2 0 .1.1.2.1.3v.6c0 .8-.5 1.5-1.4 2.1v1.3c-.2 1.2-2.4 2-6.6 2zm-10.7-2.9c2.3.2 3.8.5 4.5 1 .2.2.4.3.6.3.2 0 .7.1 1.6.1s2.2.1 4.1.1h1.6c.5 0 1-.1 1.7-.1.6 0 1.1-.2 1.5-.4.4-.2.6-.4.7-.7 0-.3-.1-.6-.4-1v-.5c0-.2.2-.3.3-.4 0 0 .1 0 .2-.1.1 0 .2-.1.4-.2s.3-.2.5-.4c.1-.1.2-.3.2-.5v-.6s-.1-.1-.1-.2v-.2c0-.1 0-.1.1-.2 0-.1.1-.1.2-.2.1 0 .2-.1.3-.2l.4-.4c.1-.2.2-.4.2-.6 0-.3-.3-.7-.8-1-.1 0-.1-.1-.2-.2 0-.1-.1-.1-.1-.3v-.4s0-.1.1-.2c0 0 0-.1.1-.1s.1-.1.1-.2 0-.2.1-.3v-.3c0-.2-.1-.5-.2-.6-.1-.2-.3-.3-.5-.3s-.3-.1-.4-.1h-6.8s-.1 0-.1-.1l-.1-.1c-.1-.2-.1-.4 0-.6.2-.6.4-1.4.5-2.1.1-.8.2-1.6.2-2.2 0-.7-.1-1.2-.3-1.6 0 0 0-.1-.1-.1 0 0 0-.1-.1-.1l-.1-.1-.1-.1h-.6l-.2.2c-.1.1-.1.2-.2.4-1.1 2.7-2.4 4.8-4 6.3-1.6 1.6-3.1 2.4-4.5 2.6-.1.2-.2.5-.3.8-.1.2-.2.7-.3 1.2-.1.5-.1 1.2-.1 1.8s0 1.3.2 1.9c.1.6.2 1.1.4 1.5-.5-.8-.4-.5-.2-.2zm317 60.7c.3.2.6.5.7.8.1.3.2.6.2.8v11c0 .3-.1.7-.3 1-.2.3-.5.6-.8.8s-.6.3-.9.3h-18c-.4 0-.9-.2-1.3-.6-.4-.4-.6-.9-.6-1.4v-11c0-.6.2-1.1.7-1.5.5-.4.9-.5 1.4-.5h3.2l1.7-2.7h8.2l1.7 2.7h3.2c.2-.1.6 0 .9.3zm-.4 1.7v-.2c0-.1-.1-.2-.2-.3-.1-.1-.2-.2-.4-.2h-3.9l-.4-.7-1.2-2.1h-6.7l-1.7 2.7h-3.9c-.1 0-.2.1-.4.2s-.3.3-.3.4v11.1c0 .2 0 .3.2.4.1.1.2.2.3.2h18c.1 0 .2-.1.4-.2.1-.1.2-.3.2-.4v-10.9zm-4.9 4.8c0 1.3-.5 2.5-1.4 3.4-.9.9-2 1.4-3.4 1.4-1.3 0-2.5-.5-3.4-1.4-.9-.9-1.4-2-1.4-3.4 0-1.3.5-2.5 1.4-3.4s2-1.4 3.4-1.4c1.3 0 2.5.5 3.4 1.4 1 .9 1.4 2 1.4 3.4zm-1.3 0c0-.9-.3-1.8-1-2.4-.7-.7-1.5-1-2.4-1-.9 0-1.8.3-2.4 1s-1 1.5-1 2.4c0 1 .3 1.8 1 2.4.7.7 1.5 1 2.4 1 .9 0 1.8-.3 2.4-1 .6-.7 1-1.5 1-2.4zM865.2 853.8c.8.4 1.2.9 1.2 1.6v1.8c0 .4-.1.7-.4.9-.2.2-.6.4-1 .4h-19.2c-.2 0-.3 0-.5-.1-.2 0-.3-.1-.4-.3-.1-.1-.2-.2-.3-.4 0-.1-.1-.3-.1-.5v-1.8c0-.2 0-.4.1-.6.1-.2.2-.3.3-.4.1-.1.2-.2.4-.3.1-.1.2-.1.3-.2h.1l5.9-2.8c-.1-.1-.5-.2-.9-.3-.5-.1-.9-.2-1.4-.2-.4 0-.8-.1-1.2-.3-.4-.1-.6-.3-.6-.4l.3-.5c.2-.3.4-.9.7-1.6.2-.7.4-1.5.5-2.2 0-.2 0-.6.1-1 0-.4.1-.9.2-1.4 0-.5.1-1 .2-1.6.1-.9.4-1.8.9-2.5s1.2-1.3 2-1.7 1.8-.6 2.8-.6c1.5 0 2.8.4 3.9 1.4s1.7 2 1.9 3.5c.1.7.2 1.5.3 2.4.1.9.2 1.4.2 1.6 0 .4.1.9.3 1.4s.2.9.4 1.2c.1.3.2.6.4.9.1.3.2.5.3.6 0 .1.1.1.1.2 0 .2-.3.3-.6.4l-1.2.3c-.4 0-.9.1-1.4.2-.5.1-.8.2-.9.3l6.3 2.6c-.1-.1-.1-.1 0 0zm-.2 3.3v-1.8s0-.1-.2-.1c-.1 0-.2-.1-.3-.1h-.1l-6-2.9s-.1 0-.2-.1l-.2-.2s-.1-.1-.1-.2-.1-.1-.1-.2v-.4c0-.2 0-.3.1-.5 0-.1.1-.3.3-.4.1-.1.2-.2.4-.3.3-.1 1-.3 2-.5.3 0 .6-.1.8-.1-.5-1.2-.8-2.3-1-3.5v-1.1c-.1-1-.3-1.9-.3-2.8-.1-1.1-.6-1.9-1.4-2.6-.8-.7-1.8-1-3-1s-2.1.3-3 1c-.8.7-1.3 1.6-1.4 2.6 0 .5-.1 1-.2 1.4 0 .4-.1.9-.2 1.4 0 .5-.1.9-.1 1.2-.1 1.2-.5 2.3-1 3.5.2 0 .5.1.8.1 1 .2 1.7.3 2 .5 0 0 .1 0 .1.1 0 0 .1 0 .1.1l.1.1.1.1s0 .1.1.1 0 .1.1.1v.4c0 .3 0 .5-.2.7-.1.2-.3.4-.5.5l-6 2.8h-.1c-.1 0-.2.1-.3.2-.1 0-.1.1-.1.1v1.8h19zM277.2 337.4l-3.6 3 3 2.4c.1 0 .1.1.2.2v.3c0 .2-.1.4-.3.5l-2.7 1.8v3.3c0 .2-.1.4-.3.6l-6.8 3.9s-.1 0-.2.1h-.2c-.1 0-.2 0-.3-.1l-6.9-3.9c-.2-.1-.3-.3-.3-.6v-2.8c0-.2.1-.3.2-.5l-2.8-1.9c-.2-.1-.3-.3-.3-.5s.1-.4.3-.5l3-2.4-3.6-3c-.2-.1-.3-.3-.2-.6 0-.2.1-.4.3-.5l6.1-3.8c.3-.2.5-.1.8 0l3.8 3 3.8-3c.2-.2.5-.2.8 0l6.1 3.8c.2.1.3.3.3.5 0 .4 0 .6-.2.7zm-16.8 2.2l4.9-3.2-3.1-2.5-4.9 3.1 3.1 2.6zm-2.6 3.7l4.7 3.1 2.7-2.1-4.8-3-2.6 2zm2.4 5.4l5.5 3.1v-6l-2.8 2.1c-.1.1-.2.1-.4.1-.1 0-.3 0-.4-.1l-1.9-1.3v2.1zm6.3-11.4l-4.8 3.2 4.8 3 4.8-3-4.8-3.2zm6.1 11.4v-2.1l-1.9 1.3s-.1 0-.2.1h-.4s-.1 0-.2-.1l-2.9-2.2v6.1l5.6-3.1zm3-11.7l-4.9-3.1-3.1 2.5 4.9 3.2 3.1-2.6zm-3.1 4.3l-4.8 3 2.7 2.1 4.7-3.1-2.6-2zm-6.2 243.5c-.1.1-.2.3-.3.4-.1.1-.3.1-.5.1l-5.3.2-3.3 4.3c-.2.3-.5.4-.7.4h-.1c-.3-.1-.6-.3-.7-.6l-1.6-4.3c-.1.1-.1.1-.1.2l-15.3 15.3c-.2.2-.4.3-.7.3s-.5-.1-.7-.3c-.1-.1-.2-.3-.3-.5-.1-.1-.1-.3 0-.5.1-.1.1-.3.3-.4l15.3-15.3s0-.1.1-.1l-4-1.4c-.1 0-.1-.1-.2-.1l-.1-.1-.1-.1c0-.1-.1-.1-.1-.2s-.1-.1-.1-.2c-.1-.2 0-.3.1-.5.1-.1.1-.3.3-.4l4.3-3.3.1-5.4c0-.4.2-.7.5-.8.3-.1.7-.1.9.1l4.5 3 5.1-1.5c.3-.1.7 0 .9.3s.3.6.3.9l-1.4 5.2 3 4.4c0 .2 0 .6-.1.9zm-2.5-1.3l-2.4-3.4c0-.1-.1-.1-.1-.1 0-.1-.1-.1-.1-.1v-.4l1.1-3.9-3.9 1.2c-.3.1-.5.1-.8-.1l-3.4-2.3-.1 4.1c0 .1 0 .2-.1.3s-.1.1-.1.3l-.2.2-3.2 2.6 3.9 1.4c.3.1.5.3.5.5l1.4 3.9 2.6-3.3c.2-.3.4-.3.7-.3l4.2-.6zm536.6-379.4c0 .1.1.2.1.4s.1.3.1.4v.6c0 .1 0 .2-.1.3 0 .1-.1.2-.2.3-.4.4-1 .4-1.9.1l-4-1.3c-.3 1-1 1.8-1.9 2.2-.9.5-1.9.5-2.9.2s-1.8-1-2.2-1.9c-.5-.9-.5-1.9-.2-2.9l-3.9-1.3c-.9-.3-1.5-.7-1.6-1.3v-.5c0-.2.1-.3.2-.4l.4-.4c.2-.1.3-.3.4-.4.1-.1.3-.2.6-.4 0 0 .3-.2.7-.4.4-.3.6-.4.8-.6.1-.1.4-.3.6-.5.3-.2.5-.5.7-.7.1-.2.3-.5.3-.7l1.5-4.5c.4-1.3 1.1-2.3 2-3.3.9-.9 2-1.5 3.2-1.8 1.2-.3 2.4-.2 3.6.1.9.3 1.7.8 2.4 1.4.7.6 1.2 1.4 1.6 2.2s.6 1.7.6 2.7 0 1.9-.4 2.9l-1.5 4.5c0 .2-.1.4-.1.7v.8c0 .3 0 .5.1.7 0 .2.1.5.2.8s.1.5.2.7c0 .2.1.4.2.7.3.3.4.5.4.6zm-1.4.8s.1 0 0 0c.1 0 .1 0 0 0v-.5c-.2-.5-.3-.9-.4-1.2-.1-.3-.2-.7-.3-1.3-.1-.5-.2-1-.1-1.5 0-.5.1-1 .2-1.4l1.5-4.5c.1-.4.2-.9.3-1.3v-1.3c0-.4-.1-.8-.3-1.2s-.3-.8-.5-1.1c-.2-.3-.4-.7-.7-1s-.6-.5-.9-.8-.7-.4-1.2-.5c-1.4-.5-2.8-.3-4.1.4-1.3.8-2.2 1.9-2.8 3.5l-1.5 4.5c-.1.3-.2.6-.4.9-.2.3-.3.5-.5.7-.1.2-.4.4-.7.7-.3.3-.5.5-.7.5-.1.1-.4.2-.8.5s-.6.4-.6.4c-.4.2-.6.4-.7.6h.2l15 4.9zm-7.1 1c.6-.3 1-.7 1.2-1.4l-4.5-1.5c-.1.3-.1.6-.1.9 0 .3.1.6.2.9.1.2.3.5.5.7.2.2.5.3.8.4.7.4 1.3.3 1.9 0z" opacity=".2"/><path d="M1371.8 537.2v.3c0 1.5-.5 2.9-1.6 4s-2.4 1.6-4 1.6c-1.5 0-2.9-.5-4-1.6s-1.7-2.4-1.7-4c0-.2 0-.5.1-.7 0-.2.1-.4.2-.7-.2-.1-.5-.2-.8-.2-.3-.1-.6-.1-1-.1-.3 0-.5 0-.8.1s-.4.1-.6.1c-.2.1-.3.1-.4.2.1.4.2.9.2 1.4 0 1.5-.5 2.9-1.6 4s-2.4 1.6-4 1.6c-1.5 0-2.9-.5-4-1.6s-1.7-2.4-1.7-4v-.5l1.5-9.2v-.4c.1-.3.1-.4.1-.6 0-.2.1-.4.2-.6.1-.3.2-.5.3-.7.1-.2.3-.4.5-.6.2-.2.4-.4.7-.5.3-.1.6-.3 1-.3.4-.1.9-.2 1.4-.2.2 0 .4.1.5.2.2.2.2.3.2.5s-.1.4-.2.5c-.2.2-.3.2-.5.2-.4 0-.7 0-1 .1-.3.1-.5.1-.7.2-.2.1-.3.2-.4.3-.1.1-.2.3-.3.4-.1.2-.1.4-.2.5 0 .1-.1.3-.1.6l-.1.4c0 .1-.2.7-.4 1.9s-.4 2.3-.5 3.2c1-.8 2.2-1.2 3.5-1.2.7 0 1.4.1 1.9.3.6.2 1.2.5 1.7 1 .5.4.9.9 1.2 1.5.7-.3 1.5-.4 2.4-.4.5 0 .9.1 1.4.1.4.1.8.2 1 .3.5-.8 1.2-1.5 2.1-2 .9-.5 1.8-.8 2.8-.8.3 0 .5 0 .8.1s.5.1.7.2c.2.1.5.2.7.2l.6.3c.2.1.4.3.6.4-.1-.9-.3-1.9-.5-3.1-.2-1.2-.3-1.8-.3-1.9 0-.1-.1-.2-.1-.4-.1-.3-.1-.5-.1-.7 0-.2-.1-.3-.2-.5s-.3-.4-.4-.5c-.2-.1-.4-.2-.7-.3-.3-.1-.7-.1-1.1-.1-.2 0-.4-.1-.6-.2-.2-.2-.2-.3-.2-.5s.1-.4.2-.5c.2-.2.3-.2.6-.2.4 0 .9.1 1.2.1.4.1.7.2 1 .3s.5.3.7.4c.2.1.4.3.5.5.2.2.3.4.3.5.1.2.2.4.2.6.1.2.1.4.1.5 0 .1.1.3.1.5v.1c.1.1.1.2.1.3 1 6.1 1.5 9.2 1.5 9.3.1-.2.1-.1 0 0zm-17.2 3.1c.8-.8 1.2-1.7 1.2-2.8 0-.8-.2-1.4-.5-2-.4-.6-.9-1.1-1.5-1.5-.6-.4-1.3-.5-2-.5-1.1 0-2.1.4-2.9 1.2-.8.8-1.2 1.7-1.2 2.8 0 1.1.4 2 1.2 2.8.8.8 1.7 1.2 2.9 1.2s2.1-.4 2.8-1.2zm13.2.8c.5-.2.9-.5 1.2-.9.3-.4.6-.8.9-1.3.2-.5.3-1 .3-1.6v-.2c0-.1-.1-.1-.1-.2v-.4c-.1-.6-.4-1.1-.8-1.6s-.8-.9-1.4-1.1-1.1-.4-1.8-.4c-1.1 0-2.1.4-2.9 1.2-.8.8-1.2 1.7-1.2 2.8s.4 2 1.2 2.8c.8.8 1.7 1.2 2.9 1.2.7.1 1.3 0 1.7-.3zM1209 388.4c-.2.4-.4.6-.9.6h-16.5c-.2 0-.3-.1-.5-.2s-.3-.2-.4-.4c-.2-.4-.1-.7.2-1l5.1-6.1v-10.6h-.6c-.3 0-.5-.1-.7-.3-.2-.2-.3-.4-.3-.7s.1-.5.3-.6c.2-.2.4-.3.7-.3h1.6c.3 0 .5.1.6.3.2.2.3.4.3.7v11.9c0 .3-.1.5-.2.6l-4 4.7h12.2l-4-4.7c-.2-.2-.2-.4-.2-.6v-11.9c0-.3.1-.5.3-.7.2-.2.4-.3.6-.3h1.6c.3 0 .5.1.7.3.2.2.3.4.3.6s-.1.5-.3.7c-.2.2-.4.3-.7.3h-.6v10.6l5.1 6.1c.4.3.5.6.3 1zm-10.4-20.6c-.1 0-.2-.1-.3-.1-.1-.1-.2-.1-.3-.2-.1-.1-.2-.1-.3-.2l-.2-.2c-.1-.1-.1-.2-.2-.3-.1-.1-.1-.2-.2-.3-.1-.1-.1-.2-.1-.3 0-.1-.1-.2-.1-.3 0-.3.1-.5.2-.8.1-.2.2-.4.4-.6.2-.2.4-.3.6-.4.2-.1.5-.2.8-.2.5 0 1 .2 1.4.5.4.4.6.8.6 1.4 0 .5-.2 1-.6 1.4-.4.4-.8.6-1.4.6h-.3zm3.2-6.2c0-.9.3-1.7 1-2.4.6-.6 1.5-1 2.4-1s1.7.3 2.4 1c.6.6 1 1.5 1 2.4 0 .9-.3 1.7-1 2.4-.6.6-1.5 1-2.4 1s-1.7-.3-2.4-1-1-1.5-1-2.4zm2.3-1c-.3.3-.4.6-.4 1 0 .3.1.5.2.7.1.2.3.4.5.5.2.1.5.2.7.2.4 0 .8-.2 1-.4.3-.3.4-.6.4-1 0-.2-.1-.4-.1-.6-.1-.2-.2-.3-.3-.5-.1-.1-.3-.2-.5-.3-.2-.1-.4-.1-.6-.1-.2.1-.5.2-.9.5zM178 521.9c-.6 0-1.1-.1-1.6-.2s-1-.3-1.4-.5c-.4-.2-.7-.4-1-.6-.2-.2-.5-.4-.8-.6-.2-.2-.5-.4-.9-.8l-.2-.2-.2-.2c-.1-.1-.2-.1-.2-.2l-.2-.2c-.1-.1-.1-.1-.2-.1s-.1-.1-.1-.1h-.2c-.1.1-.4.3-.9.7-.1.1-.2.2-.3.2-.1.1-.2.1-.2.2-.1.1-.2.2-.3.2-.1.1-.2.2-.3.2l-.1.1c-.4.3-.6.5-.9.6-.2.2-.5.3-.9.5s-.9.4-1.3.5c-.5.1-1 .2-1.5.2-.9 0-1.7-.2-2.4-.5-.8-.4-1.4-.9-1.9-1.5-1-1.2-1.3-2.7-.9-4.5.1-.3.2-.5.5-.6.3-.1.5-.1.8.2.4.3.9.4 1.4.4.4 0 .9-.1 1.4-.3.2-.1.5-.3.7-.5.2-.2.4-.5.7-.9.3-.4.4-.6.5-.7.3-.3.5-.5.6-.7.2-.2.4-.4.7-.6.3-.2.6-.4.9-.5.3-.1.6-.2 1-.2.5 0 1 .1 1.5.3.5.2.9.5 1.4.9.4-.4.9-.6 1.4-.9.5-.2 1-.3 1.5-.3.4 0 .8.1 1.1.2.3.1.6.3.9.5.3.2.5.4.7.6.2.2.4.4.7.8.1.1.3.3.5.7.3.3.5.6.8.9.3.2.4.4.7.5.5.2.9.3 1.4.3.6 0 1.1-.2 1.5-.4.2-.2.5-.2.8-.1.3.1.4.3.5.6.1.5.1 1.1.1 1.5 0 .4-.1.8-.2 1.2-.1.4-.3.7-.4 1s-.3.5-.5.8c-.5.6-1.2 1.1-1.9 1.5-1.2.4-2 .6-2.8.6zm-7-5.1h.5c.2 0 .4.1.6.2.2.1.4.3.5.4s.4.3.8.6c.3.3.6.5.9.7.3.2.5.4.7.5.2.1.4.3.8.5.3.2.7.3 1.1.4.4.1.8.1 1.2.1.4 0 .8-.1 1.2-.2.4-.1.8-.3 1.1-.5.3-.2.6-.5.9-.8.3-.3.4-.6.5-1 .1-.4.2-.8.2-1.1-.1.1-.2.1-.3.1-.1 0-.2.1-.3.1s-.2.1-.3.1h-.4c-.6 0-1.4-.2-2-.4-.2-.1-.4-.2-.6-.4-.2-.2-.4-.3-.5-.5-.2-.2-.3-.4-.5-.5-.2-.2-.3-.3-.4-.5-.2-.2-.3-.4-.4-.5-.5-.5-.9-.9-1.2-1.1-.3-.2-.6-.3-1-.3-.8 0-1.6.4-2.3 1.2l-.1.1c-.1 0-.1.1-.1.1l-.1.1c-.1 0-.1.1-.1.1h-.1c-.2 0-.4-.1-.6-.3-.3-.3-.6-.6-1-.9-.3-.2-.8-.4-1.2-.4-.4 0-.8.1-1 .3-.3.2-.7.6-1.1 1.1-.1.1-.3.3-.5.6s-.4.5-.6.7l-.6.6c-.2.2-.5.4-.8.5-.6.3-1.4.4-2 .4-.4 0-.9-.1-1.2-.2 0 .8.2 1.6.7 2.2.4.4.8.8 1.4 1.1s1.2.4 1.8.4c.3 0 .5 0 .8-.1.3-.1.5-.1.8-.2.2-.1.4-.2.6-.2l.6-.3c.2-.2.4-.3.5-.3.1-.1.3-.2.5-.4l.1-.1c.1-.1.2-.2.4-.3.2-.1.3-.2.3-.3l.3-.3c.2-.2.4-.3.5-.4.1-.1.3-.2.4-.3.2-.1.3-.2.4-.2.1 0 .2-.1.3-.1h.1c-.3 0-.3-.1-.2-.1zm550.6-184.6c-2.9 0-5.2-.9-7-2.7s-2.8-4.1-2.8-6.8c0-.5.1-1.1.2-1.8.1-.6.3-1.2.4-1.6.2-.5.3-.9.5-1.4.2-.5.3-.8.4-1 .1-.2.2-.3.2-.4.2-.3.4-.4.8-.4.2 0 .3.1.4.2.1.1.2.2.2.4.3 1.1.6 2.1 1.1 2.8.4.6.9 1.1 1.4 1.5-.5-1.9-.5-3.8-.2-5.7.2-1.1.5-2.1 1-3 .5-.9 1-1.6 1.5-2.1s1-.9 1.6-1.3c.6-.4 1-.6 1.2-.7.3-.1.4-.2.6-.2.1-.1.3-.1.4 0 .1 0 .3.1.4.2.2.2.3.4.2.7 0 .1-.1.3-.1.5-.1.2-.1.6-.1 1.2-.1.6-.1 1.2 0 1.8.1.6.2 1.2.3 2.1.2.8.4 1.5.7 2.2.1.2.2.3.3.5l.3.6c.1-.6.2-1.1.3-1.6.3-1.2 1-2.2 2-2.8.1-.1.2-.1.2-.1.1-.1.3-.1.4-.1.1 0 .3.1.4.2l.3.3c.1.1.1.3.1.4v.7c0 .2.1.5.1.8s.2.6.3 1c.2.4.3.8.6 1.1.5.9.9 1.7 1.1 2.5.2.8.3 1.7.3 2.8 0 1.1-.2 2.1-.5 3.1s-.8 1.8-1.4 2.6c-.6.8-1.3 1.5-2.1 2s-1.7 1-2.8 1.3c-.9.1-2.1.2-3.2.2zm-7.4-13.2c-.6 1.4-.9 2.7-.9 3.7 0 2.3.8 4.2 2.3 5.7 1.6 1.5 3.5 2.2 6 2.2s4.5-.8 6.1-2.2c1.6-1.5 2.4-3.4 2.4-5.7 0-.6-.1-1.2-.1-1.7-.1-.5-.2-.9-.4-1.4-.2-.4-.4-.9-.7-1.5-.5-.9-.9-1.8-1.1-2.8-.2.3-.3.6-.4.9-.1.5-.2 1-.3 1.6s-.1 1-.1 1.3 0 .5.1.6c0 .2-.1.3-.1.5-.1.2-.2.3-.4.3-.1 0-.2.1-.2.1s-.2 0-.2-.1c-.1-.1-.2-.1-.2-.1l-.2-.2c-1-1.4-1.6-2.4-2-3.3-.9-2.1-1.3-4.4-1.1-7.3-.4.2-.7.5-1 .8-.3.3-.7.6-1.1 1.1-.4.4-.7 1-1 1.7-.3.6-.5 1.4-.6 2.2-.1.6-.2 1.2-.2 1.9 0 .6.1 1.2.1 1.8l.3 1.5c.1.5.2.8.3 1 .1.2.1.3.1.4.1.1.1.1.1.2v.2c0 .1-.1.1-.1.2-.1.1-.1.1-.1.2-.2.2-.4.3-.8.2-.1 0-.2-.1-.3-.1-.1-.1-.3-.1-.6-.3s-.6-.3-.9-.5c-.3-.2-.6-.4-.9-.8-.3-.3-.6-.7-.9-1.1l-.3-.6c-.4-.2-.5-.4-.6-.6zM318.3 741.7c.4.1.4.4.2 1l-9.7 22.7c-.2.4-.4.6-.8.6-.1 0-.3-.1-.4-.1-.1-.1-.3-.2-.4-.4l-3.8-6.3c-.2-.3-.3-.5-.6-.8l-.8-.8c-.3-.3-.5-.5-.8-.6l-6.4-4c-.2-.2-.4-.3-.5-.5-.1-.2-.1-.4.1-.5s.3-.3.5-.4l22.7-9.6c.2-.1.4-.1.5-.1.1-.2.1-.2.2-.2zM303 756.4l11.3-11.5-17.5 7.4 5.2 3.2c.3.3.6.5 1 .9zm12.4-10.5L304 757.4l.3.3c.1.1.2.2.2.3.1.1.2.2.2.3l3.1 5.1 7.6-17.5zm866.6-45.6c-1.1 1.1-2.3 1.9-3.7 2.5-1.4.6-2.8.9-4.2.9-1.4 0-2.8-.3-4.2-.9-1.4-.5-2.7-1.4-3.7-2.4-.8-.8-1.4-1.5-1.8-2.4-.5-.9-.9-1.8-1.1-2.7-.2-.9-.4-1.9-.4-2.9s.1-1.9.4-2.9.6-1.8 1.1-2.7c.5-.9 1.1-1.7 1.8-2.4l7.3-7.3.1-.1 2.3-2.3c.2-.2.3-.2.5-.2s.4.1.6.2l4 4c.2.2.3.4.2.6 0 .2-.1.4-.2.5l-.5.5-8.9 8.9c-.9.9-1.3 1.9-1.4 3.1-.1 1.2.4 2.2 1.2 3 .8.8 1.8 1.2 2.8 1.1 1-.1 2.1-.6 2.9-1.5l7-7 2.3-2.3c.2-.2.3-.2.5-.2s.4.1.6.2l4 4c.2.2.3.4.2.6 0 .2-.1.4-.2.5l-.5.5-9 9.1zm-5.6-23.8l-2.3 2.3 2.8 2.8 2.3-2.3-2.8-2.8zm-5.9 24.8c1.2.5 2.4.7 3.6.7 1.2 0 2.4-.3 3.6-.8 1.2-.5 2.3-1.2 3.2-2.1l5.6-5.6-2.8-2.8-5.4 5.4c-.8.8-1.7 1.4-2.6 1.7-.9.3-1.9.4-2.9.2s-1.8-.7-2.6-1.5c-1.1-1.1-1.7-2.5-1.7-4.2 0-1.6.6-3 1.8-4.2l5.4-5.4-2.8-2.8-5.6 5.6c-1.2 1.2-2.1 2.7-2.5 4.3-.4 1.7-.4 3.3 0 5 .4 1.7 1.2 3.1 2.5 4.3.9 1 1.9 1.7 3.2 2.2zm16.6-14.1l-2.3 2.3 2.8 2.8 2.3-2.3-2.8-2.8zm-822-222.5s.1 0 0 0c.1 0 .1 0 0 0 .2 0 .3 0 .4.1.1.1.3.1.4.2l.3.3c.1.1.2.2.2.3.1.1.1.2.2.4.1.1.1.3.1.4v.2c0 .1 0 .1-.1.2l-1.5 7.5h4.7c.6 0 1.1.3 1.4.9.3.6.3 1.1-.1 1.7l-9 12.9c-.3.4-.8.6-1.2.6h-.3c-.1 0-.2-.1-.3-.1-.3-.2-.6-.4-.8-.7-.2-.3-.2-.6-.2-1l1.5-8.6h-4.7c-.1 0-.2 0-.3-.1-.1 0-.2-.1-.3-.1-.1-.1-.2-.1-.3-.2l-.3-.3c-.1-.1-.2-.2-.2-.3-.3-.6-.3-1.1.1-1.7l9-11.9.1-.1s0-.1.1-.1l.3-.3c.1-.1.2-.2.3-.2.1-.1.2-.1.3-.1.1.1.1.1.2.1zm-8.9 13.5h6.5l-1.8 10.4 8.9-12.9h-6.5l1.8-9.5-8.9 12z" fill="#9ba9b8"/><path class="st5" d="M742.5 773.1c2.1.9 3.7 2.4 4.7 4.7 1.5 3.3 1.2 8.4-.9 15.5-.1.5-.4.8-.8 1-.1.1-.3.1-.6.1h-.5c-.1 0-.1 0-.2-.1-.1 0-.3-.1-.5-.2-.8-.4-1.5-.7-1.9-.9s-1.1-.5-2-1c-.9-.4-1.6-.8-2.1-1.1-.5-.3-1.2-.7-1.9-1.2s-1.3-1-1.8-1.5c-.5-.4-.9-1-1.4-1.6-.5-.6-.8-1.2-1.1-1.8-.5-1.1-.7-2.2-.8-3.4 0-1.2.1-2.3.5-3.4.4-1 1-2 1.8-2.9.8-.9 1.7-1.6 2.8-2 2.3-1.1 4.5-1.2 6.7-.2zm3.4 5.3c-.4-.9-.9-1.6-1.5-2.3-.6-.7-1.3-1.2-2.1-1.6-.8-.4-1.7-.6-2.7-.6-1 0-2.1.2-3.2.7-1.2.5-2.1 1.4-2.9 2.4-.7 1.1-1.2 2.2-1.3 3.6-.1 1.3.1 2.6.6 3.8.2.5.6 1.1 1 1.6s.9 1 1.3 1.4c.4.4 1 .9 1.7 1.3s1.3.8 1.8 1.2c.5.3 1.2.7 2 1.1s1.5.7 1.9.9c.4.2 1.1.5 1.9.9l.5.2h.1v-.1c1.9-6.7 2.3-11.6.9-14.5zm-6.7-1.5c.6 0 1.1.1 1.7.2.5.2 1 .5 1.4.9s.8.9 1 1.4c.5 1.1.5 2.2.1 3.3-.4 1.1-1.2 1.9-2.2 2.4-1.1.5-2.2.5-3.3.1-1.1-.4-1.9-1.2-2.4-2.3-.2-.4-.3-.9-.4-1.3v-1.4c.1-.4.2-.9.5-1.2.2-.4.5-.7.8-1.1.3-.3.7-.6 1.2-.8.4 0 1-.1 1.6-.2zm2.6 5.8c.5-.9.5-1.8.1-2.6-.3-.7-.9-1.2-1.6-1.5-.7-.3-1.5-.2-2.2.1-.7.3-1.2.9-1.5 1.6-.3.7-.2 1.5.1 2.2.3.7.9 1.2 1.7 1.5.8.3 1.5.2 2.2 0 .5-.4.9-.8 1.2-1.3z"/></svg>