<svg height="50" viewBox="0 0 91 91" width="50" xmlns="http://www.w3.org/2000/svg"><path d="M73.244 16.188v-6.18h-55.06v6.18l.036 24.824c.35 14.531 12.333 23.494 27.105 23.494h.775c14.767 0 26.757-8.963 27.104-23.494l.04-24.824z" fill="#FDE497"/><path d="M46.1 67.02h-.774c-17.07 0-29.25-10.67-29.617-25.946l-.037-31.064a2.513 2.513 0 012.513-2.513h55.061a2.513 2.513 0 012.513 2.513l-.041 31.008C75.351 56.35 63.172 67.02 46.1 67.02zM20.696 12.521l.036 28.487c.297 12.333 10.41 20.985 24.593 20.985h.775c14.184 0 24.296-8.652 24.592-21.041l.04-28.432H20.696z" fill="#454B53"/><path d="M15.632 43.822h-.344c-7.952 0-14.422-6.419-14.422-14.31V16.188a2.513 2.513 0 012.513-2.513h14.805a2.513 2.513 0 012.513 2.513v24.173c0 .06.007.118.012.177.01.132.019.264.023.396a2.513 2.513 0 01-1.977 2.534 14.565 14.565 0 01-3.123.354zm-9.74-25.121v10.812c0 5.119 4.215 9.284 9.396 9.284h.383V18.701H5.892z" fill="#454B53"/><path d="M18.22 41.013c-.007-.218-.036-.433-.036-.651V16.188" fill="#FDE497"/><path d="M18.219 43.525a2.514 2.514 0 01-2.511-2.434l-.011-.17a6.955 6.955 0 01-.026-.561V16.188a2.513 2.513 0 115.026 0v24.173c0 .06.007.118.012.177.01.132.019.264.023.396a2.514 2.514 0 01-2.433 2.591h-.08zm57.919.297h-.34c-1.008 0-2.031-.116-3.128-.354a2.515 2.515 0 01-1.978-2.557c.006-.13.016-.259.027-.389.004-.055.011-.109.012-.164v-24.17a2.513 2.513 0 012.513-2.513h14.807a2.513 2.513 0 012.513 2.513v13.324c-.001 7.891-6.472 14.31-14.426 14.31zm-.381-5.025h.381c5.184 0 9.4-4.165 9.4-9.284V18.701h-9.781v20.096zM45.713 86.069a2.513 2.513 0 01-2.513-2.513V64.505a2.513 2.513 0 115.026 0v19.052a2.513 2.513 0 01-2.513 2.512z" fill="#454B53"/><path d="M61.032 86.069H30.396a2.513 2.513 0 110-5.026h30.636a2.513 2.513 0 110 5.026z" fill="#454B53"/><path fill="#9ABFDA" d="M30.396 10.007h13.956v27.312H30.396z"/><path d="M44.353 39.831H30.396a2.513 2.513 0 01-2.513-2.513V10.007a2.513 2.513 0 012.513-2.513h13.956a2.513 2.513 0 012.513 2.513v27.312a2.512 2.512 0 01-2.512 2.512zm-11.444-5.025h8.931V12.52h-8.931v22.286z" fill="#454B53"/></svg>