<svg id="Layer_1" width="50" height="50" version="1.1" viewBox="0 0 512 512" xml:space="preserve" xmlns="http://www.w3.org/2000/svg"><style>.st1{fill:#20201e}</style><path d="M248 440.8c0-15.6-12.7-28.3-28.3-28.3s-28.3 12.7-28.3 28.3c0 15.6-12.7 28.3-28.3 28.3s-28.3-12.7-28.3-28.3V204.5c0-78.2 63.4-141.6 141.6-141.6S418 126.3 418 204.5v236.3c0 15.6-12.7 28.3-28.3 28.3-15.6 0-28.3-12.7-28.3-28.3 0-15.6-12.7-28.3-28.3-28.3s-28.3 12.7-28.3 28.3c0 15.6-12.7 28.3-28.3 28.3-15.9 0-28.5-12.7-28.5-28.3" opacity=".5" fill="#40418f"/><path class="st1" d="M193.1 205c-14.8 0-26.9-12.1-26.9-26.9s12.1-26.9 26.9-26.9 26.9 12.1 26.9 26.9-12.1 26.9-26.9 26.9zm0-43.7c-9.3 0-16.9 7.6-16.9 16.9s7.6 16.9 16.9 16.9c9.3 0 16.9-7.6 16.9-16.9s-7.6-16.9-16.9-16.9zM318.9 205c-14.8 0-26.9-12.1-26.9-26.9s12.1-26.9 26.9-26.9c14.8 0 26.9 12.1 26.9 26.9S333.7 205 318.9 205zm0-43.7c-9.3 0-16.9 7.6-16.9 16.9s7.6 16.9 16.9 16.9c9.3 0 16.9-7.6 16.9-16.9s-7.6-16.9-16.9-16.9zM256 242.9c-7.1 0-13.8-2.8-18.9-7.8-2-2-2-5.1 0-7.1s5.1-2 7.1 0c3.2 3.2 7.3 4.9 11.8 4.9s8.7-1.7 11.8-4.9c2-2 5.1-2 7.1 0s2 5.1 0 7.1c-5.1 5-11.8 7.8-18.9 7.8z"/><path class="st1" d="M369.5 464.1c-18.4 0-33.3-14.9-33.3-33.3 0-12.9-10.5-23.3-23.3-23.3-12.9 0-23.3 10.5-23.3 23.3 0 18.4-14.9 33.3-33.3 33.3S223 449.2 223 430.8c0-12.9-10.5-23.3-23.3-23.3-12.9 0-23.3 10.5-23.3 23.3 0 18.4-14.9 33.3-33.3 33.3s-33.3-14.9-33.3-33.3V194.5c0-80.8 65.8-146.6 146.6-146.6S403 113.7 403 194.5v236.3c-.1 18.4-15.1 33.3-33.5 33.3zm-56.6-66.6c18.4 0 33.3 14.9 33.3 33.3 0 12.9 10.5 23.3 23.3 23.3s23.3-10.5 23.3-23.3V194.5c0-75.3-61.3-136.6-136.6-136.6s-136.6 61.3-136.6 136.6v236.3c0 12.9 10.5 23.3 23.3 23.3 12.9 0 23.3-10.5 23.3-23.3 0-18.4 14.9-33.3 33.3-33.3s33.3 14.9 33.3 33.3c0 12.9 10.5 23.3 23.3 23.3 12.9 0 23.3-10.5 23.3-23.3.2-18.4 15.1-33.3 33.5-33.3z"/></svg>