<svg width="50" height="50" xmlns="http://www.w3.org/2000/svg"><path fill="none" d="M-1-1h582v402H-1z"/><path fill="#ff9d9c" d="M23.84 30.43h10.39s1.66 3.87-.99 6.81L22.59 47.88s-2.19-6.86.88-12.14l.37-5.31zm-1.15-7.99l-3.12-6.67s-3.87-1.66-6.81.99L2.12 27.4s6.87 2.19 12.14-.87l8.43-4.09z" class="st1"/><path fill="#9beaf9" d="M37.7 27.04A35.48 35.48 0 0122.64 36L14 27.36C17.22 16.44 25.53 7.72 36.19 3.93c3.73-1.33 7.75-2.06 11.94-2.06-.01 4.19-.73 8.2-2.06 11.94a35.57 35.57 0 01-8.37 13.23z" class="st2"/><path fill="#ff9d9c" d="M46.07 13.81c-2.39-.39-4.68-1.52-6.52-3.36a11.924 11.924 0 01-3.36-6.52c3.73-1.33 7.75-2.06 11.94-2.06-.01 4.2-.73 8.21-2.06 11.94z" class="st1"/><circle fill="#fff" r="6" cy="19.51" cx="30.5" class="st6"/><path fill="#fde4a1" d="M12.01 42.13c2.77-2.77-1.38-6.91-4.15-4.15-2.75-2.75 5.49-5.49 8.24-8.24l4.15 4.15c-2.74 2.75-5.49 10.99-8.24 8.24z" class="st7"/><path fill="#505050" d="M48.66 1.34a.75.75 0 00-.53-.22c-4.19 0-8.29.71-12.19 2.1-2.37.84-4.67 1.94-6.82 3.26-.35.22-.46.68-.24 1.03.21.35.68.46 1.03.25 0 0 .01 0 .01-.01 1.81-1.11 3.74-2.04 5.71-2.81.54 2.28 1.7 4.35 3.39 6.04a12.61 12.61 0 006.03 3.38c-1.73 4.52-4.43 8.7-7.88 12.15a34.904 34.904 0 01-14.31 8.64l-1.93-1.93-6.08-6.08c2.11-6.81 6.2-12.74 11.84-17.15.16-.12.26-.3.29-.5.02-.2-.03-.39-.15-.55a.77.77 0 00-1.06-.13c-2.33 1.82-4.4 3.89-6.19 6.16-1.01-.35-4.51-1.3-7.34 1.26L1.59 26.87a.756.756 0 00.3 1.25c.17.05 2.58.8 5.64.8 1.84 0 3.91-.28 5.88-1.13.02.03.03.07.05.09l1.69 1.69c-.87.7-2.08 1.43-3.26 2.14-2.55 1.53-4.96 2.97-5.17 4.73-.09.7.17 1.35.76 1.94.29.29.77.29 1.06 0 1.07-1.07 2.32-.77 3.09 0s1.07 2.02 0 3.09c-.29.29-.29.77 0 1.06.51.51 1.08.77 1.67.77.09 0 .17-.01.26-.02 1.76-.22 3.2-2.62 4.73-5.17.71-1.18 1.44-2.39 2.14-3.26l1.69 1.69c.03.03.06.04.09.06-2.27 5.25-.42 11.23-.33 11.51a.739.739 0 00.72.52c.2 0 .39-.08.53-.22L33.8 37.74c2.55-2.82 1.58-6.32 1.23-7.33 1.12-.88 2.19-1.83 3.21-2.84 3.81-3.81 6.76-8.48 8.55-13.51 1.38-3.89 2.09-7.99 2.1-12.19a.804.804 0 00-.23-.53zM3.59 27l9.67-9.67c1.9-1.72 4.25-1.37 5.37-1.07a35.678 35.678 0 00-4.97 9.76c-3.59 1.94-7.97 1.41-10.07.98zM17 37.33c-1.16 1.93-2.6 4.33-3.63 4.46h-.1c.99-1.57.53-3.36-.59-4.48s-2.91-1.58-4.48-.59v-.1c.13-1.03 2.53-2.47 4.46-3.63 1.27-.76 2.58-1.55 3.55-2.35l3.14 3.14c-.79.97-1.58 2.28-2.35 3.55zm15.7-.62l-9.7 9.7c-.43-2.1-.97-6.47 1-10.07 3.47-1.15 6.76-2.84 9.74-4.98.31 1.11.66 3.46-1.04 5.35zm12.85-23.77c-2.07-.46-3.95-1.5-5.47-3.02a11.12 11.12 0 01-3.02-5.48c3.32-1.11 6.78-1.73 10.31-1.81-.09 3.55-.71 7-1.82 10.31z" class="st4"/><path fill="#505050" d="M27.84 8.96c.16 0 .3-.04.43-.13.34-.23.42-.7.19-1.04a.774.774 0 00-1.05-.19c-.16.11-.27.28-.31.48-.03.2.01.4.13.56.14.2.37.32.61.32zm-4.1 10.55c0 1.8.7 3.5 1.98 4.77a6.719 6.719 0 004.77 1.98c1.8 0 3.5-.7 4.77-1.98 2.63-2.63 2.63-6.91 0-9.55a6.719 6.719 0 00-4.77-1.98c-1.8 0-3.5.7-4.77 1.98a6.742 6.742 0 00-1.98 4.78zm6.75-5.25c1.4 0 2.72.55 3.71 1.54 2.05 2.05 2.05 5.38 0 7.42-.99.99-2.31 1.54-3.71 1.54s-2.72-.55-3.71-1.54-1.54-2.31-1.54-3.71.55-2.72 1.54-3.71 2.31-1.54 3.71-1.54z" class="st4"/></svg>